<?xml version="1.0" encoding="utf-8"?>
<!-- Generator: Adobe Illustrator 22.1.0, SVG Export Plug-In . SVG Version: 6.00 Build 0)  -->
<svg version="1.1" id="Layer_1" xmlns="http://www.w3.org/2000/svg" xmlns:xlink="http://www.w3.org/1999/xlink" x="0px" y="0px"
	 viewBox="0 0 327 279.9" style="enable-background:new 0 0 327 279.9;" xml:space="preserve">
<style type="text/css">
	.st0{fill:url(#SVGID_1_);}
	.st1{fill:none;stroke:#FFFFFF;stroke-width:5.5;stroke-miterlimit:10;}
	.st2{fill:#FFFFFF;}
</style>
<title>Clue Logo</title>
<linearGradient id="SVGID_1_" gradientUnits="userSpaceOnUse" x1="62.2962" y1="-33.948" x2="265.2639" y2="317.608" gradientTransform="matrix(1 0 0 -1 0 282)">
	<stop  offset="0" style="stop-color:#D13A39"/>
	<stop  offset="0.31" style="stop-color:#E0404A"/>
	<stop  offset="0.66" style="stop-color:#EB4457"/>
	<stop  offset="1" style="stop-color:#EF465B"/>
</linearGradient>
<rect x="0.2" y="0.3" class="st0" width="327.2" height="279.8"/>
<circle class="st1" cx="163.1" cy="90.4" r="48.4"/>
<circle class="st1" cx="163.1" cy="189.9" r="48.4"/>
<circle class="st1" cx="121.7" cy="115.5" r="48.4"/>
<circle class="st1" cx="120.8" cy="163.1" r="48.4"/>
<circle class="st1" cx="206.8" cy="115.1" r="48.4"/>
<circle class="st1" cx="206.3" cy="163.9" r="48.4"/>
<circle class="st1" cx="164.9" cy="139.7" r="48.4"/>
<path class="st2" d="M170.9,136.8c4.5-0.2,8.8-2.4,12.9-4c5.8-2.2,9.4-6.7,13.6-11.1c1.5-1.5-0.5-4.3-2.4-3l-10.8,7.5
	c-3,2.1-6.1,5-10.1,3.8l0.5,3.5c3.2-2.2,7.4-2.5,10.9-4c4.9-2.2,9.6-4.9,13.9-8.2c1.1-0.9,1.4-3.3-0.5-3.5
	c-4.4-0.7-7.3,1.7-11.3,3.2c-3.9,1.4-7.6,3.3-11,5.8c-2,1.4-0.1,4.8,2,3.3c2.9-2,5.3-3.8,8.7-4.9c2.9-1,7.7-4.1,10.6-3.7l-0.5-3.5
	c-4.3,3.4-9.1,6.2-14.1,8.3c-3.5,1.4-7.5,1.7-10.7,3.9c-0.9,0.6-1.2,1.9-0.5,2.8c0.2,0.4,0.6,0.6,1,0.8c2.8,0.7,5.8,0.4,8.4-1
	c5.4-2.8,10.4-7.2,15.5-10.7l-2.4-3c-4,4.1-7.3,8.3-12.8,10.5c-3.5,1.3-7.2,3.3-11,3.5C168.5,133.1,168.5,137,170.9,136.8
	L170.9,136.8z"/>
<path class="st2" d="M162.3,127.4l0.1,3.8h3.9c-0.2-8.1-0.4-16.1,1.4-24l-3.8-0.5c-0.1,7.2,0.2,14.4,0.7,21.6l3.6-1
	c-3.7-8.7-1.7-18.9-1.8-28c-0.1-1.1-1.1-1.9-2.2-1.8c-0.6,0.1-1.1,0.3-1.4,0.8c-3.2,5.2-5.3,11-6.2,17c-0.8,4.4-1.8,10.2,2.1,13.5
	c1,0.9,2.9,0.7,3.2-0.8c1.3-5.9,1.8-12,1.4-18c-0.1-2.5-4-2.5-3.9,0c0.4,5.7-0.1,11.4-1.3,17l3.2-0.8c-3.5-2.8-1.1-10.4-0.2-14
	c1-4.2,2.6-8.1,4.9-11.8l-3.6-1c0.1,10-1.8,20.5,2.3,30c0.8,1.8,3.7,0.9,3.6-1c-0.5-7.2-0.8-14.4-0.7-21.6c0-2.2-3.3-2.7-3.8-0.5
	c-1.9,8.3-1.9,16.6-1.6,25c0.1,2.5,3.9,2.5,3.9,0l-0.1-3.8C166.2,125,162.3,124.9,162.3,127.4L162.3,127.4z"/>
<path class="st2" d="M154,129.7c-8.2-0.3-17-9.5-22.7-14.7l-2.3,3c7.3,3.3,13.6,8.2,19.8,13.3l1.4-3.3c-6.6-0.8-11.2-3.9-15.9-8.2
	c-2-1.8-4.7-3.8-7.5-3.5c-1.1,0.1-1.9,1-1.9,2.1c0,0.4,0.2,0.8,0.5,1.2c7.2,8.8,20.4,12.5,30.5,16.8l1-3.6c-5.9-0.6-11.5-2-15.4-6.8
	c-1.6-1.9-4.3,0.8-2.7,2.7c4.6,5.5,11.3,7.2,18.2,7.9c1.9,0.2,2.7-2.9,1-3.6c-9.7-4.2-22.8-7.8-29.7-16.2l-1.4,3.3
	c3.9-0.3,7.9,5.7,11,7.6c3.8,2.3,8,3.7,12.4,4.2c1.6,0.2,2.6-2.3,1.4-3.3c-6.5-5.3-12.9-10.4-20.6-13.9c-1.9-0.8-4.1,1.4-2.4,3
	c6.6,6.1,15.8,15.5,25.4,15.8C156.5,133.6,156.5,129.7,154,129.7L154,129.7z"/>
<path class="st2" d="M157.1,142.2c-7.7,2-14.7,5.8-21.6,9.6c-3.5,1.9-9.3,4.4-9.9,8.9c-0.2,1.8,2.2,2.4,3.3,1.4
	c8.2-7.2,17.9-12.6,28.4-15.7l-1.5-3.5c-8.3,5.6-16.4,11.9-25.7,15.7c-2.3,0.9-1.3,4.7,1,3.7c9.7-3.9,18-10.3,26.6-16.1
	c1.8-1.2,0.7-4.2-1.5-3.5c-11.1,3.3-21.4,9-30.1,16.7l3.3,1.4c0.4-2.9,9.6-6.5,11.7-7.6c5.4-3.1,11.1-5.5,17-7.2
	C160.5,145.4,159.5,141.6,157.1,142.2L157.1,142.2z"/>
<path class="st2" d="M162.1,147.5c-0.3,9.7-3.6,19.8-0.8,29.3c0.5,1.7,3.3,1.9,3.7,0c1.7-8.2,2-16.6,1-24.9c-0.3-2.4-3.8-2.6-3.9,0
	l-1,29.1h3.9c-0.9-8.7-0.7-17.4,0.6-26c0.4-2.4-3.4-3.5-3.7-1c-1.4,8.9-1.6,18-0.7,27c0.2,2.4,3.8,2.5,3.9,0l1-29.1h-3.9
	c1,8,0.7,16-0.9,23.9h3.8c-2.7-9.1,0.7-19,1-28.3C166.1,145,162.2,145,162.1,147.5L162.1,147.5z"/>
<path class="st2" d="M171.8,147.1c8,3.2,15.7,6.9,23.1,11.3l1-3.6c-7.2,0.2-14.3-4.9-19.5-9.3l-2.4,3c8.1,3.6,15.6,8.4,23.1,13.3
	l1-3.6l-3.8-0.8c-2.2-1.1-4.2,2.3-2,3.3c1.8,0.9,3.8,1.4,5.8,1.3c1.1-0.1,1.9-1.1,1.8-2.2c-0.1-0.6-0.3-1.1-0.8-1.4
	c-7.5-4.9-15-9.6-23.1-13.3c-1.8-0.8-4.2,1.5-2.4,3c6.1,5.1,13.9,10.7,22.3,10.4c1.1-0.1,1.9-1.1,1.8-2.2c-0.1-0.6-0.3-1.1-0.8-1.4
	c-7.7-4.5-15.8-8.4-24.1-11.7c-2.3-0.9-3.3,2.8-1,3.7L171.8,147.1z"/>
</svg>
