<?xml version="1.0" encoding="utf-8"?>
<!-- Generator: Adobe Illustrator 22.1.0, SVG Export Plug-In . SVG Version: 6.00 Build 0)  -->
<svg version="1.1" id="Layer_1" xmlns="http://www.w3.org/2000/svg" xmlns:xlink="http://www.w3.org/1999/xlink" x="0px" y="0px"
	 viewBox="0 0 3236.5 1431.9" style="enable-background:new 0 0 3236.5 1431.9;" xml:space="preserve">
<style type="text/css">
	.st0{opacity:0.13;}
	.st1{opacity:0.3;fill:#264653;enable-background:new    ;}
	.st2{opacity:0.5;}
</style>
<title>flower</title>
<g class="st0">
	<g>
		<path class="st1" d="M273.4,526.6c0,0-8.9,2.1-25.5,4.3c-22.8,2.6-45.6,4.3-68.4,4.7c-14,0-29.5,0-45.6-0.5
			c-16.2-0.5-33.3-2.1-50.6-4.3c-17.3-2.1-35.7-4.7-54.1-8.4c-18.3-3.7-36.7-8-54.6-12.7c-8.9-2.6-17.8-5.8-26.7-8.4
			c-8.9-3.2-17.8-6.3-26.2-9.5c-17.3-6.9-34-13.7-49.5-21.6c-15-7.3-30.1-15.9-44-24.2l-19.6-12.7l-17.8-12.7
			c-5.5-3.7-10.5-8.4-15.5-12.1s-9.4-8-14-11.6c-8.4-7.3-16.2-13.7-21.7-19.5l-17.8-17.8l18.9,16.8c6.1,5.3,14,11.1,22.3,18.5
			c4.5,3.7,9.4,6.9,14.4,10.6s10,8,16.2,11.6l17.8,12l20.1,12.1c14,8,28.3,15.9,44.5,23.2c15.5,7.3,32.2,14.7,49.5,21.1
			c8.4,3.2,17.3,6.3,26.2,9.5s17.8,5.3,26.7,8c17.8,5.3,36.1,10,54.1,13.2c17.9,3.2,36.1,6.3,53.4,8.9c17.3,2.6,34.4,4.3,50.6,4.7
			c16.2,0.5,31.2,1.5,45.6,1.5c28.3,0,51.9-0.5,67.9-2.1C266.1,527.6,273.4,526.6,273.4,526.6z"/>
		<path class="st1" d="M200.6,365.1c0,0-7.6-5.2-19.1-15.7c-16.2-14.6-32-29.6-46-46c-8.8-9.8-18.6-21-27.9-33.7
			c-9.3-12.2-19.1-25-28.5-39.6c-9.3-14-18.6-29.1-27.4-44.2c-4.7-7.6-8.8-15.7-12.8-23.8c-4.1-8.1-8.1-16.2-11.7-24.4
			c-3.5-8.1-7.6-16.2-10.5-25s-6.9-16.9-9.8-25L2.2,74.9l-4.1-12.8L-6,49.9l-3.5-12.2L-13,25.5l-2.9-12.2
			c-1.7-8.1-3.5-15.7-4.7-23.3c-2.9-15.1-4.7-29.6-6.4-43s-2.9-25.6-2.9-36.7s-1.2-20.4-1.2-28.5v-24.4l1.2,24.4
			c0,7.6,1.2,17.5,2.3,27.9c0.6,5.2,1.2,11,1.7,17.5l2.3,18.6c2.3,13.4,4.7,27.9,8.1,42.5c1.2,7.6,3.5,15.1,5.2,23.3l2.9,11.7
			l3.6,12.2l3.5,12.2l4.1,12.2l4.1,12.2l4.7,12.2c2.9,8.1,6.4,16.2,9.8,24.4c3.5,8.1,6.9,16.9,11,24.4c3.5,8.1,7.6,16.2,11.7,24.4
			c4.1,8.1,8.1,15.7,12.2,23.3c8.8,15.1,17.5,30.3,26.7,44.2c9.3,14,18.6,27.4,27.4,39.6c9.3,12.2,18.1,23.8,26.7,34.4
			c8.8,10.5,16.9,19.8,24.4,27.4c7.6,8.1,14,14.6,19.8,20.4C193.7,359.3,200.6,365.1,200.6,365.1z"/>
		<path class="st1" d="M292.5,203.4c0,0-1.7-9.3-2.9-25c-1.7-22.1-2.3-44.2-2.3-66.9c0-14,1.2-29.1,2.3-44.8
			c1.2-15.7,2.9-32.6,5.8-49.4c1.2-8.8,2.9-17.5,4.1-26.2c1.2-8.8,3.5-17.5,5.2-26.7c2.3-8.8,4.1-18.1,6.4-26.7
			c2.3-8.8,4.7-18.1,7.6-26.7c5.8-17.5,12.2-34.8,19.1-51.7l11-24.4c4.1-8.1,7.6-15.7,11.7-23.8s8.1-15.1,12.2-22.1l12.8-21
			l13.4-19.1c4.7-5.8,8.8-11.7,13.4-17.5c4.7-5.8,8.8-10.5,12.8-15.1c4-4.7,8.1-9.3,11.7-13.4c8.1-8.1,14.6-15.1,20.4-21l18.6-16.9
			l-17.6,18c-5.8,5.8-11.7,13.4-19.1,21.5c-3.5,4.1-6.9,8.8-11,14c-4.1,4.7-8.1,9.8-12.2,15.7c-4.1,5.8-8.1,11-12.2,17.5l-12.3,19
			l-12.2,21L367-186.2c-4.1,7.6-7.6,15.7-11.7,23.3l-10.5,24.4c-6.4,16.9-12.8,33.7-18.1,51.3c-2.9,8.8-5.2,17.5-7.6,26.2
			c-2.3,8.8-4.7,17.5-6.9,26.2c-2.3,8.8-4.1,17.5-5.8,26.2c-1.7,8.8-3.5,17.5-4.7,25.6c-2.9,16.9-4.7,33.1-6.4,48.9
			c-1.7,15.7-2.9,30.3-3.5,44.2c-1.2,27.4-1.2,50.6-0.6,66.3C291.4,194,292.5,203.4,292.5,203.4z"/>
		<polygon class="st1" points="493.2,128.9 603.8,31.1 606.7,172 585.2,74.8 		"/>
		<polygon class="st1" points="314,172.5 322.8,25.9 424.6,123.6 340.2,69.6 		"/>
		<polygon class="st1" points="193.7,334.8 100.5,220.8 241.9,224.3 143.6,241.2 		"/>
		<polygon class="st1" points="211.1,514 64.5,499.4 166.3,402.3 108.8,483.8 		"/>
		<polygon class="st1" points="413,610 294.2,697.2 304.2,556.5 316.4,655.9 		"/>
		<polygon class="st1" points="589.2,579.7 590.5,727 482.1,636.1 570,684.5 		"/>
		<polygon class="st1" points="691.6,416.9 789.9,526.8 648,529.7 746.3,508.2 		"/>
		<polygon class="st1" points="647.4,241.2 795.1,251.7 695.1,351.7 750.3,269.1 		"/>
	</g>
	<g class="st2">
		<polygon class="st1" points="447.9,354.6 394.8,213.3 447.9,139.4 497.3,213.3 		"/>
		<polygon class="st1" points="461.9,356.9 536.3,226 614.3,219.6 607.2,294.7 		"/>
		<polygon class="st1" points="473.5,372 624.2,333.6 678.2,376.1 621.7,418.6 		"/>
		<polygon class="st1" points="427.5,354.6 358.3,228.9 287.3,224.3 293.2,301.1 		"/>
		<polygon class="st1" points="420,372 277.5,332.6 207.6,376.7 277.5,415.7 		"/>
		<polygon class="st1" points="427.5,393 294.2,445.4 288.5,533.2 368.8,519.9 		"/>
		<polygon class="st1" points="447.9,393 399.6,533.2 450.2,611.2 499.6,533.2 		"/>
		<polygon class="st1" points="467.6,388.9 529.9,517 614.3,523.9 609,445.4 		"/>
		<polygon class="st1" points="810.9,192.3 645.1,183 645.1,36.4 666.1,167.3 		"/>
		<polygon class="st1" points="841.2,498.2 728.3,378 830.1,272 753.9,380.2 		"/>
		<polygon class="st1" points="648,724.6 648,559.5 795.1,554.2 665.4,579.1 		"/>
		<polygon class="st1" points="321.6,756.6 450.7,653.7 549.1,763 446.1,679.3 		"/>
		<polygon class="st1" points="94.7,564.6 260,569.8 253.6,716.4 239,585.5 		"/>
		<polygon class="st1" points="564.8,-24.8 443.2,87.1 323.3,-28.8 446.1,61.4 		"/>
		<polygon class="st1" points="241.9,19.6 250,184.2 83.1,184.2 234.3,163.8 		"/>
		<polygon class="st1" points="41.2,249.9 145.4,378.4 11,476.7 120.3,371.5 		"/>
	</g>
</g>
<title>flower</title>
<g class="st0">
	<g>
		<polygon class="st1" points="1308.3,-112 1386.1,-237.4 1429.4,-103.3 1380.9,-190.2 		"/>
		<polygon class="st1" points="1149.1,-18.8 1115.5,-161.7 1241,-97.4 1144.7,-124.9 		"/>
		<polygon class="st1" points="1080.5,171.2 958.5,88.8 1094.9,51.5 1005.6,95.9 		"/>
		<polygon class="st1" points="1148.6,337.9 1004,366 1073.6,243.7 1041.9,338.3 		"/>
		<polygon class="st1" points="1369.5,371.9 1280.8,489.5 1250,351.9 1290.2,443.6 		"/>
		<polygon class="st1" points="1529.6,292.3 1573.2,433 1443.2,377.1 1541.3,398.2 		"/>
		<polygon class="st1" points="1581,106.9 1706.7,184 1571.6,227.5 1659.6,178.7 		"/>
		<polygon class="st1" points="1488.2,-48.7 1632.7,-81 1565.6,43.5 1594.8,-51.5 		"/>
	</g>
	<g class="st2">
		<polygon class="st1" points="1329.7,117.2 1238.2,-2.9 1267.9,-88.9 1336.4,-32.3 		"/>
		<polygon class="st1" points="1343.7,115.4 1377.4,-31.3 1450.3,-59.9 1465.1,14.1 		"/>
		<polygon class="st1" points="1359.2,126.5 1492.5,46.5 1556.4,71.7 1514.5,128.6 		"/>
		<polygon class="st1" points="1310.1,123.1 1207.8,22.5 1138.4,38.5 1166.1,110.4 		"/>
		<polygon class="st1" points="1307.9,141.9 1160.1,145.1 1105.8,207.4 1184,224.7 		"/>
		<polygon class="st1" points="1321.1,159.9 1208.5,248.3 1228.2,334.1 1301.3,298.3 		"/>
		<polygon class="st1" points="1340.7,154 1334.7,302.2 1405.5,362.4 1430.5,273.5 		"/>
		<polygon class="st1" points="1358.4,144.4 1454.8,249.3 1537.7,231.6 1510.1,158 		"/>
		<polygon class="st1" points="1630.8,-142.4 1469.3,-103.8 1427.2,-244.2 1484.9,-124.8 		"/>
		<polygon class="st1" points="1747.6,141.9 1605,59.1 1672.1,-71.6 1630.1,53.9 		"/>
		<polygon class="st1" points="1627.6,414.2 1580.2,256.1 1719.6,208.8 1602.5,269.8 		"/>
		<polygon class="st1" points="1324.1,538.6 1418.2,402.9 1543.8,479.4 1421.1,428.8 		"/>
		<polygon class="st1" points="1051.6,419.8 1211.4,377.3 1247.4,519.6 1195.8,398.4 		"/>
		<polygon class="st1" points="1332.7,-279.8 1248.4,-137.7 1100.3,-214.3 1243.8,-163.1 		"/>
		<polygon class="st1" points="1036.2,-144.5 1091.2,10.8 931.3,58.7 1070.3,-4.2 		"/>
		<polygon class="st1" points="910,133.7 1046.7,226.9 946.2,359.6 1020.7,227.5 		"/>
	</g>
</g>
<g class="st0">
	<g>
		<polygon class="st1" points="1040.4,753.8 1118.3,628.4 1161.5,762.5 1113,675.6 		"/>
		<polygon class="st1" points="881.3,847 847.6,704.1 973.2,768.4 876.8,740.9 		"/>
		<polygon class="st1" points="812.6,1037 690.6,954.6 827.1,917.3 737.7,961.7 		"/>
		<polygon class="st1" points="880.7,1203.7 736.1,1231.8 805.7,1109.5 774.1,1204.1 		"/>
		<polygon class="st1" points="1101.7,1237.7 1012.9,1355.3 982.1,1217.7 1022.3,1309.4 		"/>
		<polygon class="st1" points="1261.8,1158.1 1305.3,1298.8 1175.4,1242.9 1273.5,1264 		"/>
		<polygon class="st1" points="1313.1,972.7 1438.8,1049.8 1303.7,1093.3 1391.7,1044.5 		"/>
		<polygon class="st1" points="1220.3,817.1 1364.8,784.8 1297.8,909.3 1326.9,814.3 		"/>
	</g>
	<g class="st2">
		<polygon class="st1" points="1061.8,983 970.4,862.9 1000,776.9 1068.6,833.5 		"/>
		<polygon class="st1" points="1075.9,981.2 1109.6,834.5 1182.4,805.9 1197.2,879.9 		"/>
		<polygon class="st1" points="1091.3,992.3 1224.6,912.3 1288.6,937.5 1246.6,994.4 		"/>
		<polygon class="st1" points="1042.3,988.9 939.9,888.3 870.5,904.3 898.2,976.2 		"/>
		<polygon class="st1" points="1040.1,1007.7 892.2,1010.9 837.9,1073.2 916.1,1090.5 		"/>
		<polygon class="st1" points="1053.3,1025.7 940.6,1114.1 960.4,1199.9 1033.5,1164.1 		"/>
		<polygon class="st1" points="1072.8,1019.8 1066.8,1168 1137.7,1228.2 1162.6,1139.3 		"/>
		<polygon class="st1" points="1090.5,1010.2 1187,1115 1269.8,1097.4 1242.2,1023.7 		"/>
		<polygon class="st1" points="1362.9,723.3 1201.4,762 1159.4,621.6 1217,741 		"/>
		<polygon class="st1" points="1479.8,1007.7 1337.1,924.9 1404.2,794.2 1362.3,919.7 		"/>
		<polygon class="st1" points="1359.7,1280 1312.3,1121.9 1451.7,1074.5 1334.6,1135.6 		"/>
		<polygon class="st1" points="1056.2,1404.4 1150.3,1268.7 1276,1345.2 1153.3,1294.6 		"/>
		<polygon class="st1" points="783.7,1285.6 943.6,1243.1 979.5,1385.4 928,1264.2 		"/>
		<polygon class="st1" points="1064.9,586 980.5,728.1 832.4,651.5 975.9,702.7 		"/>
		<polygon class="st1" points="768.3,721.2 823.3,876.6 663.4,924.5 802.4,861.6 		"/>
		<polygon class="st1" points="642.2,999.5 778.9,1092.6 678.3,1225.4 752.8,1093.2 		"/>
	</g>
</g>
<g class="st0">
	<g>
		<polygon class="st1" points="1999.3,485.4 2077.1,360 2120.4,494.1 2071.9,407.2 		"/>
		<polygon class="st1" points="1840.1,578.6 1806.5,435.7 1932,500 1835.7,472.5 		"/>
		<polygon class="st1" points="1771.5,768.6 1649.5,686.2 1785.9,648.9 1696.6,693.3 		"/>
		<polygon class="st1" points="1839.6,935.3 1695,963.4 1764.6,841.1 1732.9,935.7 		"/>
		<polygon class="st1" points="2060.5,969.3 1971.8,1086.9 1941,949.3 1981.2,1041 		"/>
		<polygon class="st1" points="2220.6,889.7 2264.2,1030.4 2134.2,974.5 2232.3,995.6 		"/>
		<polygon class="st1" points="2272,704.3 2397.7,781.4 2262.6,824.9 2350.6,776.1 		"/>
		<polygon class="st1" points="2179.2,548.7 2323.7,516.4 2256.6,640.9 2285.8,545.9 		"/>
	</g>
	<g class="st2">
		<polygon class="st1" points="2020.7,714.6 1929.2,594.5 1958.9,508.5 2027.4,565.1 		"/>
		<polygon class="st1" points="2034.7,712.8 2068.4,566.1 2141.3,537.5 2156.1,611.5 		"/>
		<polygon class="st1" points="2050.2,723.9 2183.5,643.9 2247.4,669.1 2205.5,726 		"/>
		<polygon class="st1" points="2001.1,720.5 1898.7,619.9 1829.4,635.9 1857.1,707.8 		"/>
		<polygon class="st1" points="1998.9,739.3 1851.1,742.5 1796.8,804.8 1875,822.1 		"/>
		<polygon class="st1" points="2012.1,757.3 1899.5,845.7 1919.2,931.5 1992.3,895.7 		"/>
		<polygon class="st1" points="2031.7,751.4 2025.7,899.6 2096.5,959.8 2121.5,870.9 		"/>
		<polygon class="st1" points="2049.4,741.8 2145.8,846.6 2228.7,829 2201,755.4 		"/>
		<polygon class="st1" points="2321.8,455 2160.3,493.6 2118.2,353.2 2175.9,472.6 		"/>
		<polygon class="st1" points="2438.6,739.3 2296,656.5 2363.1,525.8 2321.1,651.3 		"/>
		<polygon class="st1" points="2318.5,1011.6 2271.2,853.5 2410.5,806.2 2293.5,867.2 		"/>
		<polygon class="st1" points="2015.1,1136 2109.2,1000.3 2234.8,1076.8 2112.1,1026.2 		"/>
		<polygon class="st1" points="1742.6,1017.2 1902.4,974.7 1938.4,1117 1886.8,995.8 		"/>
		<polygon class="st1" points="2023.7,317.6 1939.4,459.7 1791.2,383.1 1934.8,434.3 		"/>
		<polygon class="st1" points="1727.2,452.9 1782.2,608.2 1622.3,656.1 1761.3,593.2 		"/>
		<polygon class="st1" points="1601,731.1 1737.7,824.3 1637.2,957 1711.7,824.8 		"/>
	</g>
</g>
<g class="st0">
	<g>
		<polygon class="st1" points="2752.2,-98.5 2830.1,-223.9 2873.3,-89.7 2824.8,-176.7 		"/>
		<polygon class="st1" points="2593.1,-5.2 2559.4,-148.2 2685,-83.8 2588.6,-111.3 		"/>
		<polygon class="st1" points="2524.4,184.8 2402.4,102.3 2538.9,65.1 2449.5,109.5 		"/>
		<polygon class="st1" points="2592.5,351.4 2447.9,379.5 2517.5,257.3 2485.8,351.9 		"/>
		<polygon class="st1" points="2813.5,385.4 2724.7,503.1 2693.9,365.4 2734.1,457.1 		"/>
		<polygon class="st1" points="2973.6,305.8 3017.1,446.5 2887.2,390.6 2985.3,411.7 		"/>
		<polygon class="st1" points="3024.9,120.5 3150.6,197.5 3015.5,241 3103.5,192.2 		"/>
		<polygon class="st1" points="2932.1,-35.1 3076.6,-67.5 3009.6,57 3038.7,-38 		"/>
	</g>
	<g class="st2">
		<polygon class="st1" points="2773.6,130.8 2682.2,10.6 2711.8,-75.4 2780.4,-18.8 		"/>
		<polygon class="st1" points="2787.7,128.9 2821.4,-17.8 2894.2,-46.3 2909,27.6 		"/>
		<polygon class="st1" points="2803.1,140.1 2936.4,60 3000.4,85.2 2958.4,142.2 		"/>
		<polygon class="st1" points="2754.1,136.6 2651.7,36.1 2582.3,52 2610,123.9 		"/>
		<polygon class="st1" points="2751.9,155.4 2604,158.6 2549.7,220.9 2627.9,238.2 		"/>
		<polygon class="st1" points="2765.1,173.4 2652.4,261.9 2672.2,347.6 2745.3,311.8 		"/>
		<polygon class="st1" points="2784.6,167.5 2778.6,315.7 2849.5,375.9 2874.4,287 		"/>
		<polygon class="st1" points="2802.3,158 2898.8,262.8 2981.6,245.2 2954,171.5 		"/>
		<polygon class="st1" points="3074.7,-128.9 2913.2,-90.2 2871.2,-230.7 2928.8,-111.3 		"/>
		<polygon class="st1" points="3191.6,155.4 3048.9,72.7 3116,-58.1 3074.1,67.4 		"/>
		<polygon class="st1" points="3071.5,427.7 3024.1,269.6 3163.5,222.3 3046.4,283.4 		"/>
		<polygon class="st1" points="2768,552.1 2862.1,416.5 2987.8,492.9 2865.1,442.3 		"/>
		<polygon class="st1" points="2495.5,433.3 2655.4,390.8 2691.3,533.1 2639.8,411.9 		"/>
		<polygon class="st1" points="2776.7,-266.2 2692.3,-124.1 2544.2,-200.7 2687.7,-149.6 		"/>
		<polygon class="st1" points="2480.1,-131 2535.1,24.3 2375.2,72.2 2514.2,9.3 		"/>
		<polygon class="st1" points="2354,147.2 2490.7,240.4 2390.1,373.1 2464.6,241 		"/>
	</g>
</g>
<g class="st0">
	<g>
		<polygon class="st1" points="2025.3,-501.8 2103.2,-627.2 2146.4,-493.1 2097.9,-580 		"/>
		<polygon class="st1" points="1866.2,-408.6 1832.5,-551.6 1958.1,-487.2 1861.7,-514.7 		"/>
		<polygon class="st1" points="1797.5,-218.6 1675.5,-301.1 1812,-338.3 1722.7,-293.9 		"/>
		<polygon class="st1" points="1865.6,-51.9 1721,-23.8 1790.6,-146.1 1759,-51.5 		"/>
		<polygon class="st1" points="2086.6,-17.9 1997.8,99.7 1967,-38 2007.2,53.8 		"/>
		<polygon class="st1" points="2246.7,-97.5 2290.2,43.2 2160.3,-12.8 2258.4,8.4 		"/>
		<polygon class="st1" points="2298,-282.9 2423.7,-205.8 2288.6,-162.3 2376.6,-211.1 		"/>
		<polygon class="st1" points="2205.3,-438.5 2349.8,-470.8 2282.7,-346.3 2311.8,-441.3 		"/>
	</g>
	<g class="st2">
		<polygon class="st1" points="2046.7,-272.6 1955.3,-392.7 1984.9,-478.8 2053.5,-422.1 		"/>
		<polygon class="st1" points="2060.8,-274.4 2094.5,-421.2 2167.3,-449.7 2182.1,-375.7 		"/>
		<polygon class="st1" points="2076.2,-263.3 2209.6,-343.3 2273.5,-318.1 2231.6,-261.2 		"/>
		<polygon class="st1" points="2027.2,-266.8 1924.8,-367.3 1855.5,-351.3 1883.2,-279.4 		"/>
		<polygon class="st1" points="2025,-247.9 1877.2,-244.8 1822.9,-182.5 1901,-165.2 		"/>
		<polygon class="st1" points="2038.2,-230 1925.5,-141.5 1945.3,-55.8 2018.4,-91.6 		"/>
		<polygon class="st1" points="2057.7,-235.8 2051.7,-87.7 2122.6,-27.5 2147.5,-116.4 		"/>
		<polygon class="st1" points="2075.4,-245.4 2171.9,-140.6 2254.7,-158.2 2227.1,-231.9 		"/>
		<polygon class="st1" points="2347.8,-532.3 2186.3,-493.6 2144.3,-634 2202,-514.7 		"/>
		<polygon class="st1" points="2464.7,-247.9 2322,-330.7 2389.1,-461.4 2347.2,-335.9 		"/>
		<polygon class="st1" points="2344.6,24.4 2297.2,-133.8 2436.6,-181.1 2319.5,-120 		"/>
		<polygon class="st1" points="2041.1,148.7 2135.2,13.1 2260.9,89.6 2138.2,38.9 		"/>
		<polygon class="st1" points="1768.6,29.9 1928.5,-12.5 1964.4,129.7 1912.9,8.5 		"/>
		<polygon class="st1" points="2049.8,-669.6 1965.4,-527.5 1817.3,-604.1 1960.8,-553 		"/>
		<polygon class="st1" points="1753.2,-534.4 1808.2,-379 1648.3,-331.1 1787.3,-394.1 		"/>
		<polygon class="st1" points="1627.1,-256.2 1763.8,-163 1663.2,-30.2 1737.7,-162.4 		"/>
	</g>
</g>
<g class="st0">
	<g>
		<polygon class="st1" points="1753.3,1316 1831.2,1190.6 1874.4,1324.7 1825.9,1237.8 		"/>
		<polygon class="st1" points="1594.2,1409.2 1560.5,1266.3 1686.1,1330.6 1589.7,1303.1 		"/>
		<polygon class="st1" points="1525.5,1599.2 1403.5,1516.8 1540,1479.5 1450.7,1523.9 		"/>
		<polygon class="st1" points="1593.6,1765.9 1449,1794 1518.6,1671.8 1487,1766.3 		"/>
		<polygon class="st1" points="1814.6,1799.9 1725.8,1917.5 1695,1779.9 1735.2,1871.6 		"/>
		<polygon class="st1" points="1974.7,1720.3 2018.2,1861 1888.3,1805.1 1986.4,1826.2 		"/>
		<polygon class="st1" points="2026,1535 2151.7,1612 2016.6,1655.5 2104.6,1606.7 		"/>
		<polygon class="st1" points="1933.2,1379.3 2077.7,1347 2010.7,1471.5 2039.8,1376.5 		"/>
	</g>
	<g class="st2">
		<polygon class="st1" points="1774.7,1545.2 1683.3,1425.1 1712.9,1339.1 1781.5,1395.7 		"/>
		<polygon class="st1" points="1788.8,1543.4 1822.5,1396.7 1895.3,1368.1 1910.1,1442.1 		"/>
		<polygon class="st1" points="1804.2,1554.5 1937.5,1474.5 2001.5,1499.7 1959.6,1556.6 		"/>
		<polygon class="st1" points="1755.2,1551.1 1652.8,1450.5 1583.5,1466.5 1611.2,1538.4 		"/>
		<polygon class="st1" points="1753,1569.9 1605.2,1573.1 1550.9,1635.4 1629,1652.7 		"/>
		<polygon class="st1" points="1766.2,1587.9 1653.5,1676.3 1673.3,1762.1 1746.4,1726.3 		"/>
		<polygon class="st1" points="1785.7,1582 1779.7,1730.2 1850.6,1790.4 1875.5,1701.5 		"/>
		<polygon class="st1" points="1803.4,1572.4 1899.9,1677.3 1982.7,1659.6 1955.1,1586 		"/>
		<polygon class="st1" points="2075.8,1285.6 1914.3,1324.2 1872.3,1183.8 1929.9,1303.2 		"/>
		<polygon class="st1" points="2192.7,1569.9 2050,1487.2 2117.1,1356.4 2075.2,1481.9 		"/>
		<polygon class="st1" points="2072.6,1842.2 2025.2,1684.1 2164.6,1636.8 2047.5,1697.8 		"/>
		<polygon class="st1" points="1769.1,1966.6 1863.2,1830.9 1988.9,1907.4 1866.2,1856.8 		"/>
		<polygon class="st1" points="1496.6,1847.8 1656.5,1805.3 1692.4,1947.6 1640.9,1826.4 		"/>
		<polygon class="st1" points="1777.8,1148.2 1693.4,1290.3 1545.3,1213.7 1688.8,1264.9 		"/>
		<polygon class="st1" points="1481.2,1283.5 1536.2,1438.8 1376.3,1486.7 1515.3,1423.8 		"/>
		<polygon class="st1" points="1355.1,1561.7 1491.8,1654.9 1391.2,1787.6 1465.7,1655.5 		"/>
	</g>
</g>
<g class="st0">
	<g>
		<path class="st1" d="M257,1400l-0.8,6.5c-0.7,4.1-1.6,10.5-2.9,18.6c-4,21.9-8.8,44.2-15.1,66c-8.6,30.8-19.6,60.9-32.7,90.3
			c-7.5,16-15.3,32.4-24.1,48.5c-4.5,8.3-9.4,16-13.9,24.3s-10,15.8-15.6,23.8s-11.1,15.5-17,22.6l-8.9,10.6l-8.9,10.6
			c-11.7,14-24.4,26.4-38,38.5c-6.8,5.8-13.5,11.5-20.1,16.8c-6.6,5.1-13.4,9.8-20.1,15c-12.6,8.8-25,17-38.4,24.2l-8.9,5.1
			l-8.7,4.5c-5.9,3-11.5,5.5-16.5,7.5c-10.5,3.9-19.7,8.4-27.3,10.8l-24.6,7.9l23.8-9.4c7.7-3,16.5-7.5,27.1-12.1
			c5.2-2.6,10.2-5.2,16.1-8.3l8.7-4.5l8.4-5.3c12.7-7.5,25.1-15.8,37.2-24.6c6.4-4.7,13-9.9,19.6-15.1c6.6-5.1,12.8-11.2,19.5-16.9
			c13.2-12.3,25.7-24.8,37.3-38.1l8.9-10.6l8.4-10.7c6-7.3,10.9-14.9,16.4-22.3c5.5-7.5,10.5-15.6,15.4-23.1
			c4.9-7.7,10-15.8,14.3-23.5c9.4-16,17-31.8,24.6-47.7c7.6-15.8,13.9-31.7,19.8-46.2c5.9-14.6,10.6-29,14.9-42.3
			c4.3-13.3,7.6-25.6,11-36.1s5.3-20.4,7.3-28.2C255.7,1409.4,257,1400,257,1400z"/>
		<path class="st1" d="M74.6,1419.8c0,0-1.7,1.3-5.5,3.7c-3.8,2.4-9,5.6-16.3,8.8c-7.3,3.7-15.9,7.7-26.5,12.3l-7.9,3.6l-8.3,3.4
			c-6.2,2.3-12.5,4.5-18.7,6.8c-13.6,4.1-27.8,8.8-43.2,12.4c-7.8,1.8-15.5,4.3-23.9,5.8l-25.3,4.7c-8.5,1.6-17.4,2.9-26.2,3.9
			l-26.8,3.7l-27.6,2.2c-9.4,0.6-18.2,1.4-27.9,1.3l-27.6,0.4l-13.6,0.6c-4.8-0.3-9.1-0.5-13.8-0.8l-27.1-1.4
			c-9.1-0.5-17.5-0.7-26.3-1.7c-17.2-1.8-33.6-3.6-49.6-5.6l-44-7.4l-19.7-3.3c-6.3-1.4-12-2.6-17.8-3.9l-28.4-6.7l-24.3-6l24.9,4.3
			l28.8,5.6c5.7,1.2,11.5,2.4,17.4,3.2l19.9,2.7l43.8,6.1c16,1.5,32.3,2.4,49.3,4.3c8.9,1.1,17.3,1.3,26.3,1.7l26.5,1.3
			c4.8,0.3,9.1,0.5,13.3,0.6l13.6-0.6l27.6-0.4c9.3-0.1,18.6-0.7,27.4-1.5l27.4-1.5l26.6-3c8.8-0.9,17.5-1.6,26-3.2l25.2-4.2
			c8.3-1,15.8-3.4,23.7-5.2c15.7-3,29.9-7.4,43-10.6c6.8-2.1,13-4.3,19-6.2l8.8-2.6l8.2-2.8c10.5-3.9,19.5-7.8,27.3-10.8
			c7.7-3,12.8-5.6,17.2-7.9C72.2,1421.3,74.6,1419.8,74.6,1419.8z"/>
		<path class="st1" d="M380.1,1281.4l3.4,4.8c2.1,3.1,5.3,8.4,9.2,15.2c7.3,13.4,18.4,32.2,29.7,56c11.4,23.7,23.7,51.6,35.2,82.2
			c11.8,31.8,22,64.4,30.2,97.7c8.3,33.2,14.6,67.1,19,100.8c3.2,29.8,5.3,59.8,4.8,89.6c-0.1,21.4-1.3,42.3-3.9,63.4
			c-0.7,7.8-1.9,13.5-2.6,17.5l-0.8,6.5c0,0,1.1-8.9,2.2-23.8c1.1-15,1.5-36.8,1.3-63.1c-0.8-29.6-3.1-59.1-7-88.5
			c-4.5-33.8-10.8-67-19.3-99.7c-8.3-33.2-18-65.8-29.1-97.4c-11-30.4-21.9-58.9-32.8-82.6c-10.8-23.5-19.6-43.6-26.9-57l-8.5-15.5
			C381.3,1283.1,379.6,1280.5,380.1,1281.4z"/>
		<path class="st1" d="M-53.3,1285.5c0,0-9.1-0.7-25.6-3.7c-22.5-4.5-44.7-9.9-66.6-16.5c-13.3-4.3-28.1-9-43.3-14.4
			c-15.3-5.4-31.1-12.2-46.9-19.6c-15.8-7.3-32.5-15.4-48.9-24.6c-16.3-9.1-32.5-18.8-48.1-28.8c-7.7-5.2-15.2-11-22.8-16.2
			c-7.5-5.8-15-11.4-22-17.1c-14.4-11.9-28.2-23.4-40.5-35.7c-12-11.5-23.8-24.3-34.5-36.5l-14.8-18.1l-13.1-17.5
			c-4.1-5.2-7.4-11.2-11.1-16.3c-3.6-5.1-6.5-10.5-9.8-15.3c-5.8-9.5-11.2-18-14.7-25.2l-11.5-22.4l12.9,21.8
			c4.2,6.9,9.9,14.9,15.6,24.4c3.2,4.9,6.8,9.4,10.5,14.5c3.6,5.1,7.1,10.7,11.9,16l13.3,16.9l15.4,17.7
			c10.9,11.9,22.1,23.8,35.3,35.7c12.5,11.7,26.2,23.8,40.7,35.2c7,5.6,14.5,11.3,22,17.1c7.5,5.8,15.3,10.5,23,15.8
			c15.3,10.5,31.3,20.6,47.5,29.1c16.1,8.5,32.4,17,48.1,24.8s31.4,14.6,46.7,20s29.2,11,43,15.4c26.9,8.7,49.6,15.4,65.3,18.8
			C-60.5,1284.2-53.3,1285.5-53.3,1285.5z"/>
		<path class="st1" d="M-73.2,1109.5c0,0-5.6-7.3-13.4-20.8c-11-18.9-21.4-38-29.7-57.9c-5.4-12-11.3-25.7-16.2-40.6
			c-5.1-14.5-10.5-29.6-15-46.4c-4.6-16.2-8.8-33.4-12.6-50.5c-2.1-8.7-3.6-17.6-4.9-26.6c-1.4-9-2.8-17.9-3.7-26.8
			c-0.9-8.8-2.3-17.7-2.3-27c-0.1-9.3-1.4-18.2-1.7-26.8l-0.6-13.6v-13.4l-0.2-12.9l0.4-12.7l0.4-12.7l1-12.5
			c0.9-8.2,1.5-16,2.7-23.6c1.9-15.3,4.6-29.6,7.1-42.9s5.1-25.3,8.5-35.8c3.4-10.6,5.1-19.8,7.6-27.5l7.5-23.2l-6.3,23.6
			c-2.3,7.2-4.2,17-6.3,27.3c-1,5.1-2.2,10.8-3.7,17.2l-3.5,18.4c-1.9,13.5-4.1,28-5.3,42.9c-1.2,7.6-1.3,15.4-2.2,23.8l-0.8,12
			l-0.3,12.7l-0.4,12.7l0.2,12.9l0.2,12.9l0.7,13.1c0.3,8.6,1.1,17.4,1.9,26.2c0.9,8.8,1.4,18.2,3,26.6c0.9,8.8,2.3,17.7,3.7,26.8
			c1.4,9,2.9,17.4,4.5,25.9c3.8,17.1,7.4,34.2,11.9,50.2c4.6,16.2,9.3,31.8,14,46.1c5.1,14.5,9.9,28.2,14.9,40.9
			c5.2,12.7,10,24,14.8,33.6c4.8,10,8.9,18.2,12.6,25.5C-78,1101.8-73.2,1109.5-73.2,1109.5z"/>
		<polygon class="st1" points="277.7,974.1 412.9,914.9 372.5,1049.9 381.8,950.8 		"/>
		<polygon class="st1" points="93.7,960.8 147,823.9 214,948.1 150.2,870.9 		"/>
		<polygon class="st1" points="-70.5,1078.5 -124.3,941.5 9.2,988.1 -89.5,974.1 		"/>
		<polygon class="st1" points="-108.7,1254.4 -243.8,1195.7 -117.2,1134.4 -196.9,1194.4 		"/>
		<polygon class="st1" points="54.1,1407.6 -85.7,1454.3 -33.1,1323.4 -51.9,1421.8 		"/>
		<polygon class="st1" points="231.1,1432.7 187.3,1573.3 111.9,1453.6 180.8,1526.6 		"/>
		<polygon class="st1" points="378.4,1309 438.4,1443.7 302.4,1403.1 402.6,1412.7 		"/>
		<polygon class="st1" points="390.1,1128.2 527.5,1183.4 401.7,1248 479.5,1186.3 		"/>
	</g>
	<g class="st2">
		<polygon class="st1" points="165.5,1175.1 158.2,1024.4 231.3,970.3 255.8,1055.7 		"/>
		<polygon class="st1" points="178.1,1181.6 289,1079.8 365.2,1097.5 335.5,1166.9 		"/>
		<polygon class="st1" points="184.5,1199.5 339.8,1209.1 378.2,1266.1 311.4,1289.3 		"/>
		<polygon class="st1" points="146.1,1168.9 118.7,1028.1 52.5,1002 34.6,1076.9 		"/>
		<polygon class="st1" points="133.6,1183.2 10,1102.1 -70,1122.7 -15.4,1181.2 		"/>
		<polygon class="st1" points="134.3,1205.5 -8.6,1214.6 -40.9,1296.4 39.6,1308.3 		"/>
		<polygon class="st1" points="153.7,1211.7 64.9,1330.4 89.2,1420.1 160.1,1361 		"/>
		<polygon class="st1" points="173.8,1213.8 193.9,1354.9 272.1,1387.2 291.1,1310.9 		"/>
		<polygon class="st1" points="560.7,1131.7 405.7,1072.1 450.6,932.6 430.5,1063.6 		"/>
		<polygon class="st1" points="496,1432.2 425.3,1283.2 554.6,1213.5 449,1293.2 		"/>
		<polygon class="st1" points="242.8,1588.6 293.3,1431.4 435,1471.4 303.9,1455.4 		"/>
		<polygon class="st1" points="-77.8,1519.2 76.6,1460.8 136.9,1594.9 64.4,1483.7 		"/>
		<polygon class="st1" points="-235,1267 -79.2,1322.5 -130.2,1460.1 -104,1331.1 		"/>
		<polygon class="st1" points="392.9,849.7 242.9,919 164.2,772 253.5,895.5 		"/>
		<polygon class="st1" points="71.9,793.2 29.2,952.4 -129.7,901.3 20.5,928.1 		"/>
		<polygon class="st1" points="-189.7,951 -129.8,1105.2 -287.8,1157.7 -151.6,1091 		"/>
	</g>
</g>
<title>flower</title>
<g class="st0">
	<g>
		<path class="st1" d="M3070.7,963.1l6.2,2c3.9,1.4,10,3.5,17.7,6.3c20.8,8,41.9,16.7,62.1,27c28.7,14.2,56.3,30.4,82.8,48.7
			c14.3,10.3,29,21,43.2,32.6c7.4,5.9,14,12.2,21.3,18.1s13.7,12.7,20.5,19.7s13.2,13.7,19.1,20.9l8.8,10.7l8.8,10.7
			c11.6,14.1,21.5,28.8,30.9,44.4c4.5,7.7,8.9,15.4,12.8,22.8c3.8,7.4,7.1,15,11,22.5c6.3,14,12.1,27.7,16.8,42.1l3.4,9.7l2.8,9.4
			c1.9,6.4,3.3,12.4,4.4,17.6c1.9,11,4.6,20.9,5.6,28.8l3.3,25.7l-4.8-25.1c-1.5-8.1-4.4-17.6-6.9-28.9c-1.7-5.6-3.3-11-5.2-17.3
			l-2.8-9.4l-3.6-9.2c-5-13.9-10.9-27.6-17.3-41.1c-3.4-7.2-7.4-14.6-11.3-22c-3.8-7.4-8.7-14.7-13.1-22.3
			c-9.6-15.2-19.7-29.8-30.6-43.6l-8.8-10.7l-9-10.2c-6.1-7.3-12.6-13.4-18.9-20.2c-6.4-6.7-13.5-13.2-19.9-19.4
			c-6.6-6.2-13.7-12.7-20.4-18.3c-14-12.2-28.2-22.5-42.4-32.9s-28.6-19.4-41.8-27.9s-26.5-15.7-38.8-22.4s-23.8-12.2-33.5-17.4
			s-19-8.9-26.4-12.3C3079.7,966,3070.7,963.1,3070.7,963.1z"/>
		<path class="st1" d="M3056.7,1146c0,0,0.9,1.9,2.6,6.1c1.7,4.2,3.8,9.9,5.7,17.6c2.3,7.9,4.6,17.1,7.2,28.3l2.1,8.4l1.8,8.8
			c1.1,6.5,2.1,13.1,3.3,19.6c1.6,14.1,3.6,29,4.3,44.7c0.3,8,1.4,16,1.3,24.6l-0.1,25.8c0,8.6-0.3,17.7-1,26.5l-1.3,27l-2.9,27.5
			c-1.1,9.4-2,18.1-3.8,27.7l-4.7,27.2l-2,13.5c-1.2,4.7-2.2,8.8-3.3,13.5l-6.4,26.3c-2.2,8.8-3.9,17.1-6.5,25.6
			c-5,16.5-9.7,32.4-14.6,47.7l-15.4,41.9l-6.9,18.8c-2.5,5.9-4.7,11.3-7.1,16.7l-11.8,26.7l-10.4,22.8l8.8-23.7l10.8-27.3
			c2.2-5.4,4.5-10.9,6.3-16.5l6.3-19.1l14-42c4.4-15.5,8.3-31.3,13.3-47.7c2.7-8.5,4.4-16.8,6.5-25.6l6.1-25.8
			c1.2-4.7,2.2-8.8,3-12.9l2-13.5l4.7-27.2c1.6-9.1,2.7-18.4,3.6-27.2l3.6-27.2l1.9-26.7c0.8-8.8,1.6-17.5,1.6-26.2l0.5-25.5
			c0.5-8.4-0.5-16.2-0.7-24.3c0-15.9-1.8-30.8-2.6-44.2c-0.8-7.1-1.9-13.5-2.6-19.8l-1-9.2l-1.3-8.5c-1.9-11-4.1-20.6-5.6-28.8
			c-1.5-8.1-3.2-13.7-4.6-18.4C3057.7,1148.6,3056.7,1146,3056.7,1146z"/>
		<path class="st1" d="M2976.7,820.3l5.3-2.5c3.4-1.5,9.2-3.6,16.7-6.2c14.5-4.7,35-12.2,60.5-18.9c25.4-6.8,55.1-13.9,87.3-19.5
			c33.5-5.8,67.4-9.8,101.6-11.8c34.2-2.1,68.6-2,102.6-0.1c29.9,2.3,59.7,5.8,88.9,11.7c21,4.1,41.4,9.1,61.7,15.5
			c7.5,2.1,12.9,4.3,16.8,5.8l6.2,2c0,0-8.5-2.7-23-6.5c-14.5-3.9-35.9-8.3-61.8-12.8c-29.2-4.6-58.6-7.8-88.2-9.4
			c-34-1.8-67.9-1.7-101.5,0.7c-34.2,2.1-68,5.7-101.1,10.7c-31.9,5.2-62,10.7-87.2,17.1c-25.1,6.3-46.4,11.3-60.9,16l-16.8,5.5
			C2978.6,819.4,2975.8,820.6,2976.7,820.3z"/>
		<path class="st1" d="M2901.2,1247.1c0,0-2.4,8.8-8.3,24.5c-8.6,21.3-17.9,42.2-28.4,62.4c-6.7,12.3-14,26-22.1,39.9
			c-8.1,14-17.7,28.3-27.8,42.5s-21.1,29.2-33.1,43.6c-12,14.3-24.5,28.5-37.1,42c-6.5,6.6-13.6,12.9-20.1,19.5
			c-7,6.3-14,12.7-20.8,18.5c-14.3,11.9-28.2,23.4-42.5,33.3c-13.6,9.7-28.3,18.9-42.2,27.2l-20.5,11.2l-19.6,9.6
			c-5.9,3.1-12.4,5.2-18,7.9s-11.5,4.5-16.9,6.8c-10.4,3.9-19.8,7.7-27.5,9.8l-24.1,7.2l23.8-8.6c7.6-2.8,16.4-7,26.9-10.8
			c5.4-2.2,10.5-5,16.2-7.6c5.6-2.6,11.8-5,17.9-8.7l19-10l20.2-11.9c13.7-8.5,27.4-17.3,41.6-28.1c13.8-10.2,28.2-21.3,42.1-33.5
			c6.8-5.9,13.8-12.2,20.8-18.5s13.1-13.1,19.7-19.7c13.1-13.1,26-27,37.3-41.3c11.3-14.2,22.7-28.8,33.2-42.7
			c10.5-14,20.1-28.2,28.2-42.3c8.1-14,16.2-26.7,23-39.4c13.5-24.9,24.2-45.9,30.4-60.7C2898.6,1254,2901.2,1247.1,2901.2,1247.1z"
			/>
		<polygon class="st1" points="2655.9,864.6 2622.4,720.8 2747.7,785.2 2652,757.9 		"/>
		<polygon class="st1" points="2609,1043 2484.2,965.5 2618.6,922.4 2530.9,971 		"/>
		<polygon class="st1" points="2694.6,1226 2550,1253.8 2620.3,1131 2588.4,1225.5 		"/>
		<polygon class="st1" points="2860.5,1295.9 2778,1417.9 2740.9,1282.2 2785.3,1371.5 		"/>
		<polygon class="st1" points="3041,1163.9 3061.2,1309.9 2942.2,1234.2 3035.4,1270.7 		"/>
		<polygon class="st1" points="3098.1,994.5 3228.3,1063.4 3096.8,1115.5 3181.2,1061.2 		"/>
		<polygon class="st1" points="3003.6,827 3147,792.8 3082.1,919 3109.9,822.3 		"/>
		<polygon class="st1" points="2828,782.3 2907.4,657.4 2947.9,792.9 2901.4,705.1 		"/>
	</g>
	<g class="st2">
		<polygon class="st1" points="2832.9,1011.8 2683.3,991.3 2643.6,909.4 2732.1,901.1 		"/>
		<polygon class="st1" points="2841.6,1000.5 2761.8,872.8 2793.2,801.2 2855.9,843.1 		"/>
		<polygon class="st1" points="2860.4,997.5 2898.2,846.7 2961.3,819.4 2971.8,889.3 		"/>
		<polygon class="st1" points="2823.2,1029.7 2679.7,1030.8 2641.9,1091.1 2712.3,1122.4 		"/>
		<polygon class="st1" points="2834.9,1044.6 2732.5,1151.2 2738.1,1233.7 2805.6,1190.7 		"/>
		<polygon class="st1" points="2857,1048 2839.7,1190.2 2914.2,1236.9 2940.7,1159.9 		"/>
		<polygon class="st1" points="2866.7,1030 2967,1139.2 3059.7,1131.8 3014.6,1051.2 		"/>
		<polygon class="st1" points="2872.4,1010.7 3014.7,1016.8 3060.9,945.9 2989.4,913.2 		"/>
		<polygon class="st1" points="2862.7,615.3 2775.7,756.7 2646.7,687 2771.9,730.7 		"/>
		<polygon class="st1" points="3146.2,734 2986.8,776.2 2941.9,636.3 3000.9,754.7 		"/>
		<polygon class="st1" points="3253.5,1011.7 3108.3,933.2 3173.6,801.2 3133.8,927.2 		"/>
		<polygon class="st1" points="3126.5,1314 3097.3,1151.5 3240.3,1116.9 3117.7,1167.7 		"/>
		<polygon class="st1" points="2849.7,1422.3 2932.8,1279.4 3058.8,1354.7 2936.7,1305.3 		"/>
		<polygon class="st1" points="2554.7,728.5 2595.3,888.7 2436.3,939.1 2574.1,873.9 		"/>
		<polygon class="st1" points="2440.2,1033.7 2588.9,1104.8 2509.5,1251.7 2563.5,1108.9 		"/>
		<polygon class="st1" points="2547.4,1319.8 2710,1289.2 2732.5,1454.2 2692,1308 		"/>
	</g>
</g>
</svg>
