<?xml version="1.0" encoding="utf-8"?>
<!-- Generator: Adobe Illustrator 22.1.0, SVG Export Plug-In . SVG Version: 6.00 Build 0)  -->
<svg version="1.1" id="Layer_1" xmlns="http://www.w3.org/2000/svg" xmlns:xlink="http://www.w3.org/1999/xlink" x="0px" y="0px"
	 viewBox="0 0 138.8 284.7" style="enable-background:new 0 0 138.8 284.7;" xml:space="preserve">
<style type="text/css">
	.st0{fill:#FFD15C;}
	.st1{fill:#264653;}
</style>
<title>Artboard 6</title>
<path class="st0" d="M1.4,246.5c0.3-4.1,1-8.2,1.5-12.2l1.9-12.2c0.6-4,1.5-8.1,2.3-12.1l2.3-12.1l2.5-12c0.9-4,1.8-8,2.7-12
	s1.9-8,3-12c1-4,1.9-8,3.2-12L24,138l3.4-11.9c1.1-3.9,2.3-8,3.4-11.9l3.5-11.9c1.1-3.9,2.5-7.9,3.8-11.9L42,78.7l8.2-23.6l19-54.8
	l18.9,54.8l4.1,11.8c1.4,3.9,2.7,7.9,4.1,11.8c2.5,7.9,5.2,15.7,7.6,23.7l3.5,11.9c1.1,3.9,2.4,8,3.4,11.9c1.1,3.9,2.3,8,3.4,11.9
	l3.2,11.9c1,3.9,2.2,8,3.2,12s2.2,8,3,12c0.9,4,1.9,8,2.9,12c0.9,4,1.8,8.1,2.5,12l2.4,12.1c0.8,4,1.6,8.1,2.3,12.1l1.8,12.1
	c0.5,4,1.1,8.2,1.5,12.2l-2.2,0.4l-17.1-47l-17.1-47.1L67,58.8h4.2l-33.6,94.1L20.8,200L3.7,247L1.4,246.5z"/>
<path class="st1" d="M23.3,282.7c0.1-2.7,0.6-5.3,0.9-8l1.1-8c0.3-2.7,0.9-5.3,1.5-7.9l1.5-7.9l1.8-7.9l1.8-7.9
	c0.6-2.7,1.1-5.2,1.9-7.9c0.8-2.7,1.4-5.2,1.9-7.9l2.2-7.8l2.3-7.8c1.5-5.2,3.2-10.3,4.7-15.5c0.8-2.5,1.6-5.2,2.4-7.8l2.5-7.8
	l5.2-15.4l12.3-35.9l12.3,35.9l5.2,15.4c1.6,5.2,3.4,10.3,4.9,15.5l2.4,7.8c0.8,2.5,1.5,5.2,2.3,7.8l2.3,7.8l2.2,7.8
	c0.8,2.5,1.4,5.2,1.9,7.9c0.6,2.7,1.4,5.2,1.9,7.9l1.8,7.9c0.6,2.7,1.1,5.2,1.8,7.9l1.5,7.9c0.5,2.7,1,5.3,1.5,7.9l1.1,8
	c0.3,2.7,0.8,5.3,0.9,8l-1.4,0.2l-11.3-30.7l-11-30.7L66.2,160h2.7L47,221.5l-11,30.7L24.7,283L23.3,282.7z"/>
</svg>
