<svg id="Layer_1" data-name="Layer 1" xmlns="http://www.w3.org/2000/svg" viewBox="0 0 301.35 261.62"><defs><style>.cls-1{opacity:0;}.cls-2{fill:#66bf6f;opacity:0.3;isolation:isolate;}.cls-3{opacity:0.8;}.cls-4{fill:#121111;}</style></defs><title>Artboard 1</title><g class="cls-1"><path class="cls-2" d="M317.48-250.4l1.3,6.9c.6,4.4,1.8,11.2,3.1,19.9,3.1,23.7,5.6,48,6.2,72.3a693.08,693.08,0,0,1-3.8,102.8c-2.5,18.7-5,38-8.7,57.3-1.8,10-4.4,19.4-6.2,29.3s-5,19.4-8.1,29.3-6.2,19.4-10,28.6l-5.6,13.7-5.6,13.7A397.33,397.33,0,0,1,254,175.1c-5,8.1-10,16.2-15,23.7s-10.5,14.3-15.6,21.8c-10,13.1-19.9,25.5-31.2,37.3l-7.4,8.1-7.4,7.4c-5,5-10,9.4-14.3,13.1-9.4,7.4-17.4,15-24.3,19.9l-22.5,16.2,21.2-17.4c6.9-5.6,14.3-13.1,23.7-21.2l13.7-13.7,7.4-7.4,6.9-8.1a473.78,473.78,0,0,0,29.9-37.3c5-6.9,10-14.3,15-21.8s9.4-15.6,14.3-23.7a528.77,528.77,0,0,0,25.5-51.1l5.6-13.7,5-13.7c3.8-9.4,6.2-18.7,9.4-28.1s5.6-19.4,8.1-28.6c2.5-9.4,5-19.4,6.9-28.6,4.4-19.4,6.9-38,9.4-56.7s3.8-36.8,5-53.6,1.3-33,1.3-48-.6-28.6-.6-40.4-1.3-22.5-1.8-31.2C319.28-240.4,317.48-250.4,317.48-250.4Z"/><path class="cls-2" d="M138-170.5s-1.3,1.8-4.4,5.6a120.73,120.73,0,0,1-13.7,14.3c-6.2,6.2-13.7,13.1-23,21.2L90-123.2l-7.4,6.2c-5.6,4.4-11.2,8.7-16.8,13.1-12.5,8.7-25.5,18.1-39.9,26.8-7.4,4.4-14.3,9.4-22.5,13.7l-24.3,13.1c-8.1,4.4-16.8,8.7-25.5,12.5l-26.1,12.5-27.4,11.2c-9.4,3.8-18.1,7.4-28.1,10.5l-28.1,9.4-13.7,5c-5,1.3-9.4,2.5-14.3,3.8l-28.1,7.4c-9.4,2.5-18.1,5-27.4,6.9-18.1,3.8-35.5,7.4-52.4,10.5l-47.3,6.9-21.2,3.1c-6.9.6-13.1,1.3-19.4,1.8l-31.2,2.5-26.8,1.8,26.8-3.8,31.2-3.8c6.2-.6,12.5-1.3,18.7-2.5l21.2-3.8,46.7-8.1c16.8-3.8,33.7-8.1,51.7-11.8,9.4-1.8,18.1-4.4,27.4-6.9l27.4-7.4c5-1.3,9.4-2.5,13.7-3.8l13.7-5,28.1-9.4c9.4-3.1,18.7-6.9,27.4-10.5l27.4-10.5,26.1-11.8c8.7-3.8,17.4-7.4,25.5-11.8L-.62-67.9c8.1-3.8,15-8.7,22.5-13.1,15-8.1,28.1-17.4,40.4-25,6.2-4.4,11.8-8.7,17.4-12.5l8.1-5.6,7.4-5.6c9.4-7.4,17.4-14.3,24.3-19.9a196.7,196.7,0,0,0,15-13.7A25.43,25.43,0,0,1,138-170.5Z"/></g><g class="cls-3"><path class="cls-4" d="M9.65,7.4Q20.54,20.75,31,34.39c7,9.06,13.92,18.21,20.8,27.36Q72.4,89.26,92.29,117.24c13.33,18.6,26.37,37.4,39.36,56.23L151,201.83c6.36,9.51,12.77,19,19.08,28.52l-16.93.5q16.52-28.23,33.43-56.25l8.48-14,8.58-13.94c5.69-9.3,11.51-18.53,17.29-27.79q17.48-27.69,35.48-55.06c12.07-18.21,24.28-36.34,37.09-54.12-9.13,19.92-18.88,39.49-28.76,59s-20.09,38.79-30.4,58c-5.19,9.59-10.35,19.21-15.64,28.75l-7.89,14.33-8,14.28q-16,28.56-32.44,56.84l-8,13.82-8.92-13.32c-6.37-9.49-12.62-19.07-18.94-28.6L115.76,184c-12.35-19.25-24.66-38.53-36.68-58S55.14,87,43.52,67.28C37.73,57.39,32,47.5,26.31,37.52S15.07,17.53,9.65,7.4Z"/></g></svg>