<?xml version="1.0" encoding="UTF-8"?>
<svg width="1280px" height="433px" viewBox="0 0 1280 433" version="1.1" xmlns="http://www.w3.org/2000/svg" xmlns:xlink="http://www.w3.org/1999/xlink">
    <!-- Generator: Sketch 51.2 (57519) - http://www.bohemiancoding.com/sketch -->
    <title>back-drop</title>
    <desc>Created with Sketch.</desc>
    <defs></defs>
    <g id="back-drop" stroke="none" stroke-width="1" fill="none" fill-rule="evenodd">
        <g id="Group" transform="translate(0.000000, -70.000000)" fill-rule="nonzero">
            <rect id="Rectangle" fill="#65BE71" x="0" y="70" width="1280" height="433"></rect>
            <g id="flower" transform="translate(100.000000, 0.000000)" opacity="0.3">
                <polygon id="Shape" fill="#212121" points="297.689655 275 277 218.535785 297.689655 189 317 218.535785"></polygon>
                <polygon id="Shape" fill="#212121" points="304 275 333.305263 223.523364 364 221 361.221053 250.523364"></polygon>
                <polygon id="Shape" fill="#212121" points="309 281.824937 368.586207 266 390 283.5 367.655172 301"></polygon>
                <polygon id="Shape" fill="#212121" points="290 275 262.856598 224.835796 235 223 237.307399 253.65353"></polygon>
                <polygon id="Shape" fill="#212121" points="287 282.146718 230.633249 266 203 284.072072 230.633249 300"></polygon>
                <polygon id="Shape" fill="#212121" points="290 290 237.284615 310.930587 235 346 266.773077 340.660564"></polygon>
                <polygon id="Shape" fill="#212121" points="297.811765 290 279 345.910294 298.729412 377 318 345.910294"></polygon>
                <polygon id="Shape" fill="#212121" points="306 288 331.045952 339.2187 365 342 362.89132 310.59271"></polygon>
                <path d="M303,187 C303,187 305.293915,183.977659 309.924225,178.912046 C316.381171,171.973433 323.092997,165.503069 330.272101,159.245547 C340.424799,150.433934 351.044776,142.34598 362.386912,135.151957 C368.631458,131.235685 375.088404,127.276844 381.80023,123.573412 C388.512055,119.869981 395.64868,116.634799 402.827784,113.399618 C410.006889,110.164436 417.398393,107.610345 424.789897,105.311663 C428.485649,104.162323 432.181401,103.012982 435.877153,102.076482 C439.572905,101.139982 443.056257,99.990641 446.752009,99.3095502 C450.447761,98.6284593 453.931114,97.6919593 457.371986,97.0108685 C460.855339,96.3297776 464.296211,95.6061185 467.524684,95.3932776 C470.753157,95.1804368 473.98163,94.4567777 477.210103,94.2439368 L486.215844,93.5628459 C489.231917,93.350005 491.993111,93.350005 494.541906,93.094596 C497.3031,93.094596 499.639495,92.8817551 502.145809,93.094596 C506.988519,93.3074369 510.93915,93.094596 514.380023,93.5628459 L525,94.2439368 L514.380023,94.0310959 C510.89667,94.0310959 506.776119,94.2439368 502.145809,94.2439368 C499.851894,94.2439368 497.3031,94.4567777 494.541906,94.7121868 C491.780712,94.9250277 488.977038,94.9250277 486.215844,95.3932776 L477.210103,96.3297776 C473.98163,96.7980276 470.965557,97.2662775 467.737084,97.7345275 C464.508611,98.2027775 461.025258,98.8838684 457.584386,99.6075274 C454.101033,100.288618 450.660161,101.012277 447.176808,101.906209 C443.693456,102.842709 439.997704,103.779209 436.556831,104.673141 C433.073479,105.609641 429.377727,106.758982 425.681975,108.163732 C418.50287,110.462413 411.366246,113.484754 404.187141,116.507095 C397.008037,119.529435 390.083812,122.977458 383.414466,126.468049 C376.702641,129.958639 370.245695,133.874912 364.001148,137.578344 C357.756602,141.281775 351.979334,145.198048 346.669346,149.156888 C341.359357,153.115729 336.261768,156.776593 331.673938,160.480024 C322.668197,167.886887 315.489093,174.357251 310.646383,179.252591 C305.761194,183.977659 303,187 303,187 Z" id="Shape" fill="#FFFFFF"></path>
                <path d="M360.902125,348 L361.371062,350.554467 C361.584216,352.172297 362.053153,354.726764 362.522091,357.962423 C363.67312,366.775335 364.610995,375.801119 364.824148,384.826904 C365.293086,397.556666 364.824148,410.286428 363.417336,423.01619 C362.47946,429.955827 361.541585,437.150909 360.177403,444.303418 C359.495312,448.007396 358.557437,451.498501 357.875346,455.202479 C357.193255,458.906456 355.999595,462.397561 354.848567,466.101539 C353.697538,469.805517 352.546509,473.296622 351.139696,476.745153 L349.050793,481.854088 L346.961889,486.963022 C344.190894,493.689786 340.950961,499.948231 337.242091,506.164102 C335.366341,509.186888 333.533221,512.1671 331.65747,514.977014 C329.78172,517.744353 327.735447,520.298821 325.859696,523.06616 C322.150826,527.919648 318.441956,532.560264 314.264148,536.945433 L311.493153,539.968219 L308.722159,542.735559 C306.846408,544.608835 305.013288,546.226664 303.393322,547.589047 C299.897605,550.356386 296.913457,553.1663 294.355616,554.997002 L286,561 L293.886678,554.528683 C296.444519,552.442534 299.215514,549.675195 302.711231,546.652409 C304.331197,545.034579 305.951164,543.41675 307.826914,541.543474 L310.597909,538.776134 L313.15575,535.753348 C317.077774,531.368179 320.786644,526.727563 324.282361,521.874076 C326.158111,519.319608 327.991231,516.552269 329.866981,513.784929 C331.742732,511.017589 333.362698,507.994803 335.195818,504.972017 C338.691535,498.713572 341.931467,492.455127 344.702462,485.98381 L346.791366,480.874875 L348.667116,475.76594 C350.073929,472.274835 350.969174,468.826304 352.162833,465.335199 C353.313862,461.844094 354.251737,458.140116 355.189612,454.691585 C356.127487,451.20048 357.065363,447.496502 357.747454,444.047971 C359.36742,436.852888 360.305295,429.913252 361.24317,422.973616 C362.181046,416.03398 362.649983,409.307216 363.118921,403.048771 C363.587858,396.790326 363.587858,390.787328 363.587858,385.210074 C363.587858,379.63282 363.374705,374.56646 363.374705,370.181291 C363.374705,365.796122 362.905767,361.836698 362.692614,358.601039 C361.584216,351.703978 360.902125,348 360.902125,348 Z" id="Shape" fill="#FFFFFF"></path>
                <path d="M295,378 C295,378 294.531635,378.680851 293.382014,380.085106 C292.232392,381.489362 290.614405,383.319149 288.272583,385.404255 C285.973339,387.702128 283.163152,390.255319 279.714286,393.276596 L277.15957,395.574468 L274.391962,397.87234 C272.305611,399.489362 270.21926,401.106383 268.132909,402.723404 C263.491842,405.957447 258.637883,409.446809 253.315559,412.680851 C250.547951,414.297872 247.993235,416.170213 244.970155,417.787234 L235.943494,422.638298 C232.920414,424.255319 229.684441,425.87234 226.448468,427.276596 L216.740549,431.914894 L206.564266,436.085106 C203.072821,437.489362 199.836848,438.851064 196.132511,440 L185.700756,443.489362 L180.591325,445.361702 C178.717867,445.829787 177.099881,446.297872 175.269001,446.765957 L164.837246,449.531915 C161.345802,450.468085 158.109829,451.404255 154.660963,452.085106 C147.933546,453.489362 141.4616,454.851064 135.202547,456 L117.617589,458.553191 L109.740549,459.702128 C107.185834,459.914894 104.88659,460.170213 102.544767,460.382979 L90.9633904,461.319149 L81,462 L90.9633904,460.595745 L102.544767,459.191489 C104.844011,458.978723 107.185834,458.723404 109.485078,458.255319 L117.362117,456.851064 L134.734182,453.829787 C140.993235,452.425532 147.252288,450.808511 153.937127,449.446809 C157.428571,448.765957 160.664544,447.829787 164.11341,446.893617 L174.289694,444.12766 C176.163152,443.659574 177.781138,443.191489 179.399125,442.723404 L184.508556,440.851064 L194.94031,437.361702 C198.431755,436.212766 201.880621,434.808511 205.116594,433.446809 L215.292877,429.531915 L225.000796,425.148936 C228.236769,423.744681 231.472742,422.382979 234.495822,420.765957 L243.522483,416.12766 C246.545563,414.723404 249.100279,412.893617 251.867887,411.276596 C257.445682,408.255319 262.299642,404.808511 266.89813,402 C269.197374,400.382979 271.283725,398.765957 273.370076,397.361702 L276.393156,395.276596 L279.160764,393.191489 C282.652209,390.425532 285.63271,387.87234 288.187425,385.787234 C290.742141,383.702128 292.360127,382.085106 293.765221,380.680851 C294.318743,378.893617 295,378 295,378 Z" id="Shape" fill="#FFFFFF"></path>
                <path d="M370,222.828661 C370,222.828661 373.47302,222.355982 379.656689,222.141128 C385.840358,221.926274 394.607616,221.926274 405.238444,222.355982 C410.532682,222.570836 416.292812,223.043515 422.264712,223.774019 C428.236612,224.461552 434.716758,225.40691 441.154551,226.567122 C447.592344,227.727334 454.28426,229.14537 460.976176,230.778261 C467.668092,232.411152 474.571778,234.301868 481.263694,236.407438 C484.736714,237.56765 487.95561,238.727862 491.174506,239.931045 L500.831195,243.669506 C504.050092,245.087542 507.268988,246.247754 510.276115,247.880645 C513.283242,249.513536 516.502138,250.673748 519.509265,252.091785 C522.516392,253.724676 525.481165,254.884888 528.276522,256.517779 L536.323763,261.201598 L543.905111,265.885416 C546.192222,267.518307 548.521686,269.151198 550.808797,270.569235 C555.171248,273.620163 558.856037,276.62812 562.329057,279.206369 C565.547954,281.784618 568.55508,284.362866 570.842191,286.468436 L578,293 L570.418652,286.941115 C568.131541,285.050399 564.870291,282.729975 561.651395,280.151727 C559.787823,278.73369 557.966606,277.573478 556.103034,276.198412 C554.239462,274.823346 552.206475,273.405309 549.877011,271.987272 C547.5899,270.569235 545.260436,269.194169 542.973325,267.561278 L535.391977,263.135284 L527.344736,258.70929 L518.577479,254.498151 C515.570352,253.080114 512.605579,251.705048 509.598452,250.287011 C506.591326,248.868974 503.372429,247.708762 500.153533,246.333696 L490.496844,242.595235 C487.277947,241.435023 483.804928,240.274811 480.586031,239.329453 C473.894115,237.223884 467.244553,235.118314 460.552637,233.485423 C453.860721,231.852532 447.211159,230.434495 440.731012,229.059429 C434.293219,227.899217 428.067196,226.739005 422.052942,226.008501 C416.038689,225.277997 410.532682,224.590464 405.238444,223.902931 C394.861739,222.957573 386.136836,222.484894 379.910812,222.27004 C373.684789,221.883303 370,222.828661 370,222.828661 Z" id="Shape" fill="#FFFFFF"></path>
                <path d="M393.041669,288.050558 L394.913313,289.447083 C396.061821,290.3781 397.933465,291.98622 400.230482,294.059848 C404.611831,298.207105 411.120047,303.962481 418.266323,311.537572 C425.455137,319.112663 433.537235,328.126598 441.619334,338.240826 C449.956656,348.820562 457.826068,359.865807 464.972344,371.37656 C472.161158,382.887313 478.626837,394.863574 484.411918,407.05143 C489.261177,417.88508 493.685062,428.930324 497.130588,440.187163 C499.68283,448.227763 501.767161,456.310681 503.38358,464.562875 C504.064178,467.56752 504.319402,469.852743 504.532089,471.460863 L505,474 C505,474 504.319402,470.529847 502.915669,464.77447 C501.511936,459.019094 499.002232,450.724581 495.726856,440.821948 C491.813418,429.776703 487.389533,418.943053 482.327587,408.363317 C476.542506,396.175461 470.076827,384.410795 462.888014,373.153955 C455.6992,361.643202 448.085012,350.597958 440.002914,340.018222 C432.133502,329.903994 424.519315,320.46687 417.543188,312.84946 C410.609598,305.274368 404.824517,298.79957 400.443169,294.652313 L395.338686,289.827954 C393.722266,288.516066 392.786445,287.796644 393.041669,288.050558 Z" id="Shape" fill="#FFFFFF"></path>
                <path d="M229,343.058888 C229,343.058888 225.303711,343.991194 218.378479,344.9235 C208.904082,346.067694 199.429685,346.788112 189.955288,347 C184.17718,347 177.719295,347 171.006494,346.788112 C164.293692,346.576225 157.15603,345.855806 149.975881,344.9235 C142.795733,343.991194 135.190724,342.847001 127.543228,341.236654 C119.938219,339.626307 112.290724,337.761695 104.898145,335.685195 C101.201855,334.541002 97.5055659,333.142543 93.8092764,331.998349 C90.112987,330.59989 86.4166976,329.243808 82.9328386,327.845349 C75.7526902,324.836544 68.8274583,321.870116 62.3695733,318.395157 C56.1241187,315.174463 49.8786642,311.487617 44.1005566,307.800771 L36.0282004,302.249312 L28.6356215,296.697854 C26.3413729,295.087507 24.2595547,293.011007 22.1777365,291.40066 C20.0959184,289.790314 18.2690167,287.925702 16.3996289,286.315355 C12.9157699,283.094662 9.68682746,280.340121 7.39257885,277.797468 L0,270 L7.85992579,277.373693 C10.4090909,279.66208 13.6380334,282.204733 17.1218924,285.425427 C18.9912801,287.035773 21.0306122,288.434232 23.1124304,290.044579 C25.1942486,291.654926 27.2760668,293.519538 29.8252319,295.129884 L37.2178108,300.427078 L45.5450835,305.724271 C51.3231911,309.199229 57.3137291,312.631811 64.0265306,315.852504 C70.4844156,319.073198 77.4096475,322.293891 84.5897959,325.090809 C88.0736549,326.489268 91.7699443,327.845349 95.4662338,329.243808 C99.1625232,330.642267 102.858813,331.532196 106.555102,332.718767 C113.947681,335.007155 121.55269,337.083654 128.987755,338.482113 C136.42282,339.880572 143.985343,341.236654 151.165492,342.380848 C158.34564,343.525041 165.483302,344.24546 172.196104,344.457347 C178.908905,344.669235 185.15436,345.135388 191.144898,345.135388 C202.913544,345.135388 212.642857,344.9235 219.313173,344.203082 C225.983488,343.525041 229,343.058888 229,343.058888 Z" id="Shape" fill="#FFFFFF"></path>
                <path d="M200,278 C200,278 197.017082,275.914894 192.479686,271.744681 C186.093721,265.957447 179.917821,259.957447 174.414127,253.446809 C170.969067,249.531915 167.103878,245.106383 163.448753,240.042553 C159.793629,235.191489 155.92844,230.085106 152.273315,224.297872 C148.61819,218.723404 144.963066,212.723404 141.518006,206.723404 C139.669437,203.702128 138.072946,200.468085 136.476454,197.234043 C134.879963,194 133.283472,190.765957 131.897045,187.531915 C130.510619,184.297872 128.914127,181.06383 127.779778,177.574468 C126.645429,174.085106 125.048938,170.851064 123.914589,167.617021 L122.06602,162.510638 L120.469529,157.404255 L118.873038,152.553191 L117.486611,147.702128 L116.100185,142.851064 L114.965836,138 C114.293629,134.765957 113.579409,131.744681 113.117267,128.723404 C111.982918,122.723404 111.268698,116.93617 110.596491,111.617021 C109.924284,106.297872 109.462142,101.446809 109.462142,97.0212766 C109.462142,92.5957447 109,88.9361702 109,85.7021277 L109,76 L109.462142,85.7021277 C109.462142,88.7234043 109.924284,92.6382979 110.386427,96.8085106 C110.596491,98.893617 110.848569,101.191489 111.058633,103.744681 L111.982918,111.148936 C112.907202,116.468085 113.831487,122.255319 115.1759,128.042553 C115.638042,131.06383 116.562327,134.042553 117.234534,137.319149 L118.368883,141.957447 L119.755309,146.808511 L121.141736,151.659574 L122.738227,156.510638 L124.334718,161.361702 L126.183287,166.212766 C127.317636,169.446809 128.704063,172.680851 130.048476,175.914894 C131.434903,179.148936 132.779317,182.638298 134.375808,185.617021 C135.762235,188.851064 137.358726,192.085106 138.955217,195.319149 C140.551708,198.553191 142.148199,201.574468 143.744691,204.595745 C147.189751,210.595745 150.592798,216.638298 154.247922,222.170213 C157.903047,227.744681 161.558172,233.06383 165.003232,237.914894 C168.658356,242.765957 172.103416,247.404255 175.506464,251.574468 C178.951524,255.744681 182.144506,259.446809 185.085411,262.468085 C188.068329,265.702128 190.589104,268.255319 192.857802,270.553191 C197.26916,275.702128 200,278 200,278 Z" id="Shape" fill="#FFFFFF"></path>
                <path d="M237.085698,214 C237.085698,214 236.404654,210.302284 235.936436,204.054419 C235.255392,195.256405 235,186.500894 235,177.490367 C235,171.922542 235.468218,165.929692 235.936436,159.681827 C236.404654,153.433962 237.085698,146.71857 238.23496,140.04568 C238.703178,136.560477 239.384222,133.117776 239.85244,129.632572 C240.320658,126.147368 241.257094,122.704667 241.938138,119.006951 C242.874574,115.521748 243.555619,111.824032 244.492054,108.381331 C245.42849,104.896127 246.364926,101.198411 247.514188,97.75571 C249.812713,90.8278054 252.366629,83.8999007 255.133371,77.1845084 L259.517594,67.4939424 C261.135074,64.2637537 262.539728,61.2460775 264.157208,58.0158888 C265.774688,54.7857001 267.392168,52.0230387 269.009648,49.2178749 L274.11748,40.8873883 L279.438138,33.2794439 C281.31101,30.9843098 282.92849,28.6466733 284.758797,26.3515392 C286.631669,24.0564052 288.249149,22.1862959 289.866629,20.3586892 C291.484109,18.5310824 293.101589,16.6609732 294.506243,15.0458788 C297.741203,11.8156902 300.295119,9.0530288 302.593644,6.71539225 L310,0 L303.061862,7.18291956 C300.763337,9.47805362 298.422247,12.4957299 295.442679,15.7259186 C294.038025,17.3410129 292.675936,19.2111221 291.058456,21.2937438 C289.440976,23.163853 287.823496,25.2039722 286.206016,27.5416087 C284.588536,29.8367428 282.971056,31.9193644 281.353575,34.4695134 L276.45857,42.0349553 L271.606129,50.3654419 L266.753689,59.1634558 C265.136209,62.1811321 263.731555,65.4113208 262.114075,68.428997 L257.942679,78.1195631 C255.388763,84.8349553 252.834847,91.5078451 250.749149,98.4782522 C249.599886,101.963456 248.663451,105.406157 247.727015,108.89136 C246.790579,112.376564 245.854143,115.819265 244.960272,119.304469 C244.023837,122.789672 243.342792,126.232373 242.661748,129.717577 C241.980704,133.202781 241.257094,136.645482 240.788876,139.87567 C239.639614,146.591063 238.916005,153.05144 238.23496,159.299305 C237.553916,165.54717 237.085698,171.327507 236.830306,176.85283 C236.362089,187.733466 236.362089,196.956504 236.61748,203.204369 C236.61748,210.302284 237.085698,214 237.085698,214 Z" id="Shape" fill="#FFFFFF"></path>
                <polygon id="Shape" fill="#FFFFFF" points="317 185.558087 360.854854 146 362 203 353.475024 163.658314"></polygon>
                <polygon id="Shape" fill="#FFFFFF" points="246 204 249.489362 145 290 184.333333 256.425532 162.557987"></polygon>
                <polygon id="Shape" fill="#FFFFFF" points="198.554463 267 161 222 218 223.393058 178.375946 230.062852"></polygon>
                <polygon id="Shape" fill="#FFFFFF" points="206 339 147 333.137931 187.968636 294 164.816193 326.844828"></polygon>
                <polygon id="Shape" fill="#FFFFFF" points="284 376.699848 237 412 240.937838 355 245.764865 395.281155"></polygon>
                <polygon id="Shape" fill="#FFFFFF" points="354.532609 364 355 423 312 386.596657 346.884387 405.977471"></polygon>
                <polygon id="Shape" fill="#FFFFFF" points="395.525245 300 435 343.848341 378 345 417.474755 336.42654"></polygon>
                <polygon id="Shape" fill="#FFFFFF" points="378 229 437 233.17425 397.054308 273 419.099203 240.117135"></polygon>
                <polygon id="Shape" fill="#212121" points="443 210 377 206.300412 377 148 385.345806 200.049383"></polygon>
                <polygon id="Shape" fill="#212121" points="455 332 410 284.12766 450.563981 242 420.194313 285.021277"></polygon>
                <polygon id="Shape" fill="#212121" points="378 421 378 356.060891 437 354 384.989099 363.799749"></polygon>
                <polygon id="Shape" fill="#212121" points="249 434.475538 300.071932 394 339 437 298.252468 404.055773"></polygon>
                <polygon id="Shape" fill="#212121" points="158 359 224 361.10493 221.436893 420 215.627184 367.419718"></polygon>
                <polygon id="Shape" fill="#212121" points="346 124.614035 297.680992 169 250 123 298.82942 158.806094"></polygon>
                <polygon id="Shape" fill="#212121" points="216.786675 141 220 206 154 206 213.784753 197.933073"></polygon>
                <polygon id="Shape" fill="#212121" points="136.941879 232 178 283.004243 125 322 168.125796 280.24611"></polygon>
            </g>
        </g>
    </g>
</svg>