<svg id="Layer_1" data-name="Layer 1" xmlns="http://www.w3.org/2000/svg" xmlns:xlink="http://www.w3.org/1999/xlink" viewBox="0 0 327.04 279.85"><defs><style>.cls-1{fill:url(#linear-gradient);}.cls-2{fill:none;stroke:#fff;stroke-miterlimit:10;stroke-width:5.5px;}.cls-3{fill:#fff;}</style><linearGradient id="linear-gradient" x1="62.3" y1="315.95" x2="265.27" y2="-35.61" gradientUnits="userSpaceOnUse"><stop offset="0" stop-color="#d13a39"/><stop offset="0.31" stop-color="#e0404a"/><stop offset="0.66" stop-color="#eb4457"/><stop offset="1" stop-color="#ef465b"/></linearGradient></defs><title>Clue Logo</title><rect class="cls-1" x="0.17" y="0.26" width="327.22" height="279.82"/><circle class="cls-2" cx="163.09" cy="90.41" r="48.43"/><circle class="cls-2" cx="163.09" cy="189.93" r="48.43"/><circle class="cls-2" cx="121.7" cy="115.52" r="48.43"/><circle class="cls-2" cx="120.77" cy="163.11" r="48.43"/><circle class="cls-2" cx="206.8" cy="115.06" r="48.43"/><circle class="cls-2" cx="206.33" cy="163.88" r="48.43"/><circle class="cls-2" cx="164.95" cy="139.7" r="48.43"/><path class="cls-3" d="M170.9,136.81c4.49-.22,8.75-2.4,12.89-4,5.81-2.21,9.36-6.72,13.61-11.12,1.47-1.52-.48-4.34-2.35-3l-10.83,7.5c-3,2.06-6.15,5-10.09,3.78l.46,3.54c3.16-2.24,7.42-2.49,10.95-4a69.08,69.08,0,0,0,13.85-8.21c1.15-.86,1.38-3.27-.46-3.54-4.41-.66-7.26,1.74-11.29,3.2a44.52,44.52,0,0,0-11,5.78c-2,1.4-.11,4.76,2,3.34,2.9-2,5.27-3.81,8.71-4.93,2.95-1,7.7-4.09,10.64-3.65l-.46-3.54a62.17,62.17,0,0,1-14.11,8.29c-3.53,1.39-7.54,1.7-10.69,3.94a2,2,0,0,0,.46,3.54,11.73,11.73,0,0,0,8.43-1c5.4-2.83,10.45-7.23,15.47-10.71l-2.35-3c-4,4.12-7.34,8.34-12.78,10.45-3.46,1.34-7.22,3.33-11,3.51-2.48.12-2.5,4,0,3.87Z"/><path class="cls-3" d="M162.32,127.43l.07,3.82h3.87c-.25-8.08-.38-16.09,1.45-24l-3.8-.51q-.09,10.84.7,21.64l3.61-1c-3.74-8.67-1.69-18.88-1.81-28a2,2,0,0,0-3.61-1,46.73,46.73,0,0,0-6.2,17c-.78,4.44-1.83,10.25,2.11,13.46,1,.85,2.9.7,3.24-.85a64.35,64.35,0,0,0,1.43-18c-.15-2.48-4-2.49-3.87,0A60.59,60.59,0,0,1,158.22,127l3.24-.85c-3.47-2.83-1.1-10.44-.17-14a40.48,40.48,0,0,1,4.86-11.78l-3.61-1c.13,10-1.77,20.48,2.34,30,.76,1.76,3.74.87,3.61-1q-.79-10.81-.7-21.64c0-2.15-3.3-2.68-3.8-.51-1.91,8.27-1.85,16.61-1.59,25.05.08,2.49,3.92,2.5,3.87,0l-.07-3.82c0-2.49-3.92-2.5-3.87,0Z"/><path class="cls-3" d="M154,129.66c-8.23-.27-17-9.48-22.66-14.69L129,118c7.34,3.32,13.59,8.2,19.81,13.27l1.37-3.31c-6.56-.84-11.16-3.9-15.91-8.23-2-1.78-4.72-3.79-7.5-3.54a2,2,0,0,0-1.37,3.31c7.22,8.79,20.44,12.48,30.49,16.82l1-3.61c-5.87-.56-11.52-2-15.43-6.76-1.59-1.92-4.32.83-2.74,2.74,4.57,5.51,11.3,7.23,18.16,7.89,1.86.18,2.72-2.86,1-3.61-9.69-4.18-22.77-7.76-29.71-16.21l-1.37,3.31c3.89-.35,7.89,5.68,11,7.6a30.46,30.46,0,0,0,12.43,4.17c1.63.21,2.62-2.29,1.37-3.31-6.46-5.27-12.95-10.41-20.59-13.87-1.86-.84-4.1,1.44-2.35,3,6.64,6.07,15.83,15.51,25.39,15.83,2.49.08,2.49-3.79,0-3.87Z"/><path class="cls-3" d="M157.08,142.25c-7.72,2-14.66,5.78-21.62,9.62-3.47,1.91-9.34,4.37-9.87,8.89-.22,1.82,2.18,2.35,3.31,1.37a75.51,75.51,0,0,1,28.4-15.67l-1.49-3.54c-8.27,5.6-16.35,11.89-25.67,15.68-2.28.93-1.28,4.67,1,3.74,9.67-3.93,18-10.26,26.59-16.07,1.75-1.18.72-4.18-1.49-3.54a79.89,79.89,0,0,0-30.11,16.67l3.31,1.37c.35-2.92,9.58-6.46,11.7-7.61a77.32,77.32,0,0,1,17-7.17c2.41-.64,1.39-4.38-1-3.74Z"/><path class="cls-3" d="M162.1,147.49c-.3,9.69-3.62,19.75-.83,29.31.51,1.74,3.34,1.94,3.74,0a76.07,76.07,0,0,0,1-24.92c-.3-2.41-3.79-2.56-3.87,0l-1,29.07H165a101.77,101.77,0,0,1,.56-26c.37-2.44-3.36-3.49-3.74-1a105.54,105.54,0,0,0-.7,27c.25,2.44,3.79,2.54,3.87,0l1-29.07h-3.87a72.88,72.88,0,0,1-.87,23.89H165c-2.66-9.14.68-19,1-28.28.08-2.49-3.8-2.49-3.87,0Z"/><path class="cls-3" d="M171.78,147.14a165.44,165.44,0,0,1,23.14,11.31l1-3.61c-7.16.17-14.27-4.93-19.53-9.32l-2.35,3c8.14,3.65,15.63,8.41,23.1,13.26l1-3.61-3.83-.76c-2.24-1.06-4.21,2.28-2,3.34a11.69,11.69,0,0,0,5.78,1.28,2,2,0,0,0,1-3.61c-7.47-4.85-15-9.61-23.1-13.26-1.83-.82-4.18,1.51-2.35,3,6.15,5.13,13.93,10.66,22.27,10.45a2,2,0,0,0,1-3.61,171.82,171.82,0,0,0-24.07-11.7c-2.32-.91-3.33,2.83-1,3.74Z"/></svg>