<?xml version="1.0" encoding="utf-8"?>
<!-- Generator: Adobe Illustrator 20.0.0, SVG Export Plug-In . SVG Version: 6.00 Build 0)  -->
<svg version="1.1" id="Layer_1" xmlns="http://www.w3.org/2000/svg" xmlns:xlink="http://www.w3.org/1999/xlink" x="0px" y="0px"
	 viewBox="0 0 898.5 280.2" style="enable-background:new 0 0 898.5 280.2;" xml:space="preserve">
<style type="text/css">
	.st0{fill:url(#SVGID_1_);}
	.st1{fill:none;stroke:#FFFFFF;stroke-width:3.1065;stroke-miterlimit:10;}
	.st2{fill:#FFFFFF;}
	.st3{fill:none;}
	.st4{font-family:'Optima-Regular';}
	.st5{font-size:60.0002px;}
</style>
<title>clue-banner</title>
<linearGradient id="SVGID_1_" gradientUnits="userSpaceOnUse" x1="276.7927" y1="877.0318" x2="622.458" y2="278.3362" gradientTransform="matrix(1 0 0 1 0 -438)">
	<stop  offset="0" style="stop-color:#D13A39"/>
	<stop  offset="0.31" style="stop-color:#E0404A"/>
	<stop  offset="0.66" style="stop-color:#EB4457"/>
	<stop  offset="1" style="stop-color:#EF465B"/>
</linearGradient>
<rect x="0.6" y="-0.2" class="st0" width="898.1" height="279.8"/>
<g>
	<g>
		<circle class="st1" cx="278.8" cy="121" r="27.3"/>
		<circle class="st1" cx="278.8" cy="177.2" r="27.3"/>
		<circle class="st1" cx="255.4" cy="135.2" r="27.3"/>
		<circle class="st1" cx="254.9" cy="162.1" r="27.3"/>
		<circle class="st1" cx="303.5" cy="135" r="27.3"/>
		<circle class="st1" cx="303.2" cy="162.6" r="27.3"/>
		<circle class="st1" cx="279.8" cy="148.9" r="27.3"/>
		<path class="st2" d="M283.2,147.2c2.6-0.1,5-1.4,7.3-2.2c3.3-1.3,5.3-3.8,7.7-6.3c0.9-0.9-0.3-2.5-1.3-1.7l-6.1,4.2
			c-1.7,1.2-3.5,2.8-5.7,2.1l0.3,2c1.8-1.3,4.2-1.4,6.2-2.2c2.7-1.2,5.4-2.8,7.8-4.6c0.7-0.5,0.8-1.9-0.3-2
			c-2.5-0.3-4.1,0.9-6.3,1.8c-2.2,0.8-4.3,1.9-6.2,3.3c-1.1,0.8-0.1,2.7,1.1,1.9c1.6-1.1,3-2.1,4.9-2.7c1.6-0.6,4.4-2.3,6-2.1
			l-0.3-2c-2.4,1.9-5.1,3.5-8,4.7c-2,0.8-4.3,0.9-6,2.2c-0.5,0.3-0.7,1-0.3,1.5c0.2,0.2,0.3,0.3,0.6,0.4c1.6,0.4,3.3,0.2,4.8-0.6
			c3.1-1.6,5.9-4.1,8.7-6.1l-1.3-1.7c-2.2,2.3-4.1,4.7-7.2,5.9c-2,0.8-4.1,1.9-6.2,2C281.9,145.2,281.8,147.3,283.2,147.2
			L283.2,147.2z"/>
		<path class="st2" d="M278.3,141.9v2.1h2.2c-0.2-4.5-0.3-9.1,0.9-13.5l-2.1-0.3c0,4.1,0.1,8.1,0.4,12.3l2.1-0.6
			c-2.1-4.9-0.9-10.6-1-15.9c-0.1-0.6-0.6-1.1-1.2-1c-0.3,0-0.6,0.2-0.9,0.4c-1.8,2.9-3,6.2-3.5,9.6c-0.4,2.5-1,5.8,1.2,7.6
			c0.6,0.5,1.6,0.4,1.8-0.5c0.8-3.3,1-6.8,0.8-10.2c-0.1-1.4-2.2-1.4-2.2,0c0.2,3.2,0,6.4-0.8,9.6l1.8-0.5c-2-1.6-0.6-5.9-0.1-7.9
			c0.6-2.3,1.5-4.6,2.7-6.7l-2.1-0.6c0.1,5.7-1,11.6,1.3,17c0.4,1,2.1,0.5,2.1-0.6c-0.3-4-0.4-8.1-0.4-12.3c0-1.2-1.9-1.5-2.1-0.3
			c-1.1,4.6-1,9.3-0.9,14.1c0.1,1.4,2.2,1.4,2.2,0v-2.1C280.6,140.5,278.3,140.5,278.3,141.9L278.3,141.9z"/>
		<path class="st2" d="M273.6,143.2c-4.6-0.2-9.6-5.3-12.8-8.3l-1.3,1.7c4.1,1.9,7.7,4.6,11.2,7.5l0.8-1.9c-3.7-0.5-6.3-2.2-9-4.6
			c-1.1-1-2.7-2.1-4.2-2c-0.6,0-1.1,0.6-1,1.2c0,0.3,0.1,0.5,0.3,0.7c4.1,5,11.6,7,17.2,9.5l0.6-2.1c-3.3-0.3-6.5-1.1-8.7-3.9
			c-0.9-1.1-2.4,0.4-1.5,1.5c2.6,3.1,6.3,4.1,10.3,4.5c1,0.1,1.5-1.6,0.6-2.1c-5.5-2.4-12.9-4.4-16.8-9.2l-0.8,1.9
			c2.2-0.2,4.5,3.2,6.2,4.3c2.1,1.3,4.5,2.1,7,2.3c0.9,0.1,1.5-1.3,0.8-1.9c-3.7-3-7.3-5.9-11.7-7.8c-1-0.5-2.3,0.8-1.3,1.7
			c3.8,3.4,8.9,8.7,14.3,8.9C275.1,145.4,275.1,143.2,273.6,143.2L273.6,143.2z"/>
		<path class="st2" d="M275.3,150.3c-4.4,1.1-8.3,3.3-12.2,5.4c-2,1.1-5.3,2.5-5.6,5.1c-0.1,1,1.2,1.3,1.9,0.8
			c4.6-4.1,10.1-7.1,16-8.8l-0.9-2c-4.6,3.2-9.3,6.7-14.5,8.8c-1.3,0.5-0.7,2.7,0.6,2.1c5.5-2.2,10.2-5.8,15-9.1
			c1-0.7,0.4-2.4-0.9-2c-6.3,1.9-12.1,5.1-17,9.4l1.9,0.8c0.2-1.6,5.4-3.7,6.6-4.3c3-1.7,6.3-3.1,9.6-4
			C277.3,152.1,276.8,150,275.3,150.3L275.3,150.3z"/>
		<path class="st2" d="M278.3,153.3c-0.2,5.5-2.1,11.1-0.4,16.5c0.3,0.9,1.9,1.1,2.1,0c0.9-4.6,1.1-9.3,0.6-14.1
			c-0.2-1.4-2.1-1.5-2.2,0l-0.6,16.5h2.2c-0.5-4.9-0.4-9.9,0.3-14.7c0.2-1.4-1.9-2-2.1-0.6c-0.8,5.1-0.9,10.2-0.4,15.3
			c0.2,1.4,2.1,1.5,2.2,0l0.6-16.5h-2.2c0.6,4.5,0.4,9.1-0.5,13.5h2.1c-1.5-5.1,0.3-10.7,0.6-15.9
			C280.5,151.9,278.3,151.9,278.3,153.3L278.3,153.3z"/>
		<path class="st2" d="M283.7,153.1c4.5,1.8,8.9,3.9,13,6.3l0.6-2.1c-4,0.1-8.1-2.7-11.1-5.2l-1.3,1.7c4.6,2.1,8.8,4.7,13,7.5
			l0.6-2.1l-2.1-0.4c-1.3-0.6-2.4,1.3-1.1,1.9c1,0.5,2.1,0.8,3.3,0.7c0.6-0.1,1.1-0.6,1-1.2c0-0.3-0.2-0.6-0.4-0.9
			c-4.2-2.7-8.5-5.4-13-7.5c-1-0.4-2.4,0.9-1.3,1.7c3.5,2.9,7.9,6,12.6,5.9c0.6-0.1,1.1-0.6,1-1.2c0-0.3-0.2-0.6-0.4-0.9
			c-4.4-2.5-8.9-4.7-13.6-6.5C283,150.5,282.4,152.5,283.7,153.1L283.7,153.1z"/>
	</g>
	<rect x="374" y="124.7" class="st3" width="298.3" height="48.9"/>
	<text transform="matrix(1 0 0 1 374.0015 169.834)" class="st2 st4 st5">Clue S.O.S</text>
</g>
</svg>
