<?xml version="1.0" encoding="utf-8"?>
<!-- Generator: Adobe Illustrator 20.0.0, SVG Export Plug-In . SVG Version: 6.00 Build 0)  -->
<svg version="1.1" id="Layer_1" xmlns="http://www.w3.org/2000/svg" xmlns:xlink="http://www.w3.org/1999/xlink" x="0px" y="0px"
	 viewBox="0 0 1651.1 1780.6" style="enable-background:new 0 0 1651.1 1780.6;" xml:space="preserve">
<style type="text/css">
	.st0{opacity:0.3;fill:#212121;enable-background:new    ;}
	.st1{opacity:0.3;fill:#FFFFFF;enable-background:new    ;}
</style>
<title>flower</title>
<polygon class="st0" points="813.7,885.5 764.2,753.4 813.7,684.3 859.9,753.4 "/>
<polygon class="st0" points="826.8,887.7 896.4,765.3 969.3,759.3 962.7,829.5 "/>
<polygon class="st0" points="837.7,901.8 978.5,865.9 1029.1,905.6 976.3,945.3 "/>
<polygon class="st0" points="794.7,885.5 730,768 663.6,763.7 669.1,835.5 "/>
<polygon class="st0" points="787.6,901.8 654.4,864.9 589.1,906.2 654.4,942.6 "/>
<polygon class="st0" points="794.7,921.4 670.1,970.4 664.7,1052.5 739.8,1040 "/>
<polygon class="st0" points="813.7,921.4 768.6,1052.5 815.9,1125.4 862.1,1052.5 "/>
<polygon class="st0" points="832.2,917.6 890.4,1037.3 969.3,1043.8 964.4,970.4 "/>
<path class="st1" d="M825.7,678.9c0,0,5.4-7.1,16.3-19c15.2-16.3,31-31.5,47.9-46.2c23.9-20.7,48.9-39.7,75.6-56.6
	c14.7-9.2,29.9-18.5,45.7-27.2s32.6-16.3,49.5-23.9s34.3-13.6,51.7-19c8.7-2.7,17.4-5.4,26.1-7.6s16.9-4.9,25.6-6.5s16.9-3.8,25-5.4
	c8.2-1.6,16.3-3.3,23.9-3.8s15.2-2.2,22.8-2.7l21.2-1.6c7.1-0.5,13.6-0.5,19.6-1.1c6.5,0,12-0.5,17.9,0c11.4,0.5,20.7,0,28.8,1.1
	l25,1.6l-25-0.5c-8.2,0-17.9,0.5-28.8,0.5c-5.4,0-11.4,0.5-17.9,1.1c-6.5,0.5-13.1,0.5-19.6,1.6l-21.2,2.2
	c-7.6,1.1-14.7,2.2-22.3,3.3c-7.6,1.1-15.8,2.7-23.9,4.4c-8.2,1.6-16.3,3.3-24.5,5.4c-8.2,2.2-16.9,4.4-25,6.5
	c-8.2,2.2-16.9,4.9-25.6,8.2c-16.9,5.4-33.7,12.5-50.6,19.6c-16.9,7.1-33.2,15.2-48.9,23.4c-15.8,8.2-31,17.4-45.7,26.1
	c-14.7,8.7-28.3,17.9-40.8,27.2s-24.5,17.9-35.3,26.6c-21.2,17.4-38.1,32.6-49.5,44.1C832.2,671.8,825.7,678.9,825.7,678.9z"/>
<path class="st1" d="M959.5,1059.5l1.1,6c0.5,3.8,1.6,9.8,2.7,17.4c2.7,20.7,4.9,41.9,5.4,63.1c1.1,29.9,0,59.8-3.3,89.7
	c-2.2,16.3-4.4,33.2-7.6,50c-1.6,8.7-3.8,16.9-5.4,25.6c-1.6,8.7-4.4,16.9-7.1,25.6c-2.7,8.7-5.4,16.9-8.7,25l-4.9,12l-4.9,12
	c-6.5,15.8-14.1,30.5-22.8,45.1c-4.4,7.1-8.7,14.1-13.1,20.7c-4.4,6.5-9.2,12.5-13.6,19c-8.7,11.4-17.4,22.3-27.2,32.6l-6.5,7.1
	l-6.5,6.5c-4.4,4.4-8.7,8.2-12.5,11.4c-8.2,6.5-15.2,13.1-21.2,17.4l-19.6,14.1l18.5-15.2c6-4.9,12.5-11.4,20.7-18.5
	c3.8-3.8,7.6-7.6,12-12l6.5-6.5l6-7.1c9.2-10.3,17.9-21.2,26.1-32.6c4.4-6,8.7-12.5,13.1-19c4.4-6.5,8.2-13.6,12.5-20.7
	c8.2-14.7,15.8-29.4,22.3-44.6l4.9-12l4.4-12c3.3-8.2,5.4-16.3,8.2-24.5c2.7-8.2,4.9-16.9,7.1-25c2.2-8.2,4.4-16.9,6-25
	c3.8-16.9,6-33.2,8.2-49.5s3.3-32.1,4.4-46.8c1.1-14.7,1.1-28.8,1.1-41.9s-0.5-25-0.5-35.3s-1.1-19.6-1.6-27.2
	C961.1,1068.2,959.5,1059.5,959.5,1059.5z"/>
<path class="st1" d="M802.8,1129.2c0,0-1.1,1.6-3.8,4.9s-6.5,7.6-12,12.5c-5.4,5.4-12,11.4-20.1,18.5l-6,5.4l-6.5,5.4
	c-4.9,3.8-9.8,7.6-14.7,11.4c-10.9,7.6-22.3,15.8-34.8,23.4c-6.5,3.8-12.5,8.2-19.6,12l-21.2,11.4c-7.1,3.8-14.7,7.6-22.3,10.9
	l-22.8,10.9l-23.9,9.8c-8.2,3.3-15.8,6.5-24.5,9.2l-24.5,8.2l-12,4.4c-4.4,1.1-8.2,2.2-12.5,3.3l-24.5,6.5c-8.2,2.2-15.8,4.4-23.9,6
	c-15.8,3.3-31,6.5-45.7,9.2l-41.3,6l-18.5,2.7c-6,0.5-11.4,1.1-16.9,1.6l-27.2,2.2l-23.4,1.6l23.4-3.3l27.2-3.3
	c5.4-0.5,10.9-1.1,16.3-2.2l18.5-3.3l40.8-7.1c14.7-3.3,29.4-7.1,45.1-10.3c8.2-1.6,15.8-3.8,23.9-6l23.9-6.5
	c4.4-1.1,8.2-2.2,12-3.3l12-4.4l24.5-8.2c8.2-2.7,16.3-6,23.9-9.2l23.9-9.2l22.8-10.3c7.6-3.3,15.2-6.5,22.3-10.3l21.2-10.9
	c7.1-3.3,13.1-7.6,19.6-11.4c13.1-7.1,24.5-15.2,35.3-21.8c5.4-3.8,10.3-7.6,15.2-10.9l7.1-4.9l6.5-4.9c8.2-6.5,15.2-12.5,21.2-17.4
	s9.8-8.7,13.1-12C801.2,1131.3,802.8,1129.2,802.8,1129.2z"/>
<path class="st1" d="M979.6,763.2c0,0,8.2-1.1,22.8-1.6s35.3-0.5,60.4,0.5c12.5,0.5,26.1,1.6,40.2,3.3c14.1,1.6,29.4,3.8,44.6,6.5
	s31,6,46.8,9.8s32.1,8.2,47.9,13.1c8.2,2.7,15.8,5.4,23.4,8.2l22.8,8.7c7.6,3.3,15.2,6,22.3,9.8c7.1,3.8,14.7,6.5,21.8,9.8
	c7.1,3.8,14.1,6.5,20.7,10.3l19,10.9l17.9,10.9c5.4,3.8,10.9,7.6,16.3,10.9c10.3,7.1,19,14.1,27.2,20.1c7.6,6,14.7,12,20.1,16.9
	l16.9,15.2l-17.9-14.1c-5.4-4.4-13.1-9.8-20.7-15.8c-4.4-3.3-8.7-6-13.1-9.2s-9.2-6.5-14.7-9.8c-5.4-3.3-10.9-6.5-16.3-10.3
	l-17.9-10.3l-19-10.3l-20.7-9.8c-7.1-3.3-14.1-6.5-21.2-9.8s-14.7-6-22.3-9.2l-22.8-8.7c-7.6-2.7-15.8-5.4-23.4-7.6
	c-15.8-4.9-31.5-9.8-47.3-13.6s-31.5-7.1-46.8-10.3c-15.2-2.7-29.9-5.4-44.1-7.1s-27.2-3.3-39.7-4.9c-24.5-2.2-45.1-3.3-59.8-3.8
	C988.3,761,979.6,763.2,979.6,763.2z"/>
<path class="st1" d="M1035.1,918.7l4.4,3.3c2.7,2.2,7.1,6,12.5,10.9c10.3,9.8,25.6,23.4,42.4,41.3c16.9,17.9,35.9,39.2,54.9,63.1
	c19.6,25,38.1,51.1,54.9,78.3c16.9,27.2,32.1,55.5,45.7,84.3c11.4,25.6,21.8,51.7,29.9,78.3c6,19,10.9,38.1,14.7,57.6
	c1.6,7.1,2.2,12.5,2.7,16.3l1.1,6c0,0-1.6-8.2-4.9-21.8c-3.3-13.6-9.2-33.2-16.9-56.6c-9.2-26.1-19.6-51.7-31.5-76.7
	c-13.6-28.8-28.8-56.6-45.7-83.2c-16.9-27.2-34.8-53.3-53.8-78.3c-18.5-23.9-36.4-46.2-52.8-64.2c-16.3-17.9-29.9-33.2-40.2-43
	l-12-11.4C1036.7,919.8,1034.5,918.1,1035.1,918.7z"/>
<path class="st1" d="M650.6,1045.4c0,0-8.7,2.2-25,4.4c-22.3,2.7-44.6,4.4-66.9,4.9c-13.6,0-28.8,0-44.6-0.5s-32.6-2.2-49.5-4.4
	s-34.8-4.9-52.8-8.7c-17.9-3.8-35.9-8.2-53.3-13.1c-8.7-2.7-17.4-6-26.1-8.7c-8.7-3.3-17.4-6.5-25.6-9.8
	c-16.9-7.1-33.2-14.1-48.4-22.3c-14.7-7.6-29.4-16.3-43-25l-19-13.1L179,936c-5.4-3.8-10.3-8.7-15.2-12.5s-9.2-8.2-13.6-12
	c-8.2-7.6-15.8-14.1-21.2-20.1L111.6,873l18.5,17.4c6,5.4,13.6,11.4,21.8,19c4.4,3.8,9.2,7.1,14.1,10.9c4.9,3.8,9.8,8.2,15.8,12
	l17.4,12.5l19.6,12.5c13.6,8.2,27.7,16.3,43.5,23.9c15.2,7.6,31.5,15.2,48.4,21.8c8.2,3.3,16.9,6.5,25.6,9.8s17.4,5.4,26.1,8.2
	c17.4,5.4,35.3,10.3,52.8,13.6s35.3,6.5,52.2,9.2c16.9,2.7,33.7,4.4,49.5,4.9s30.5,1.6,44.6,1.6c27.7,0,50.6-0.5,66.3-2.2
	C643.5,1046.5,650.6,1045.4,650.6,1045.4z"/>
<path class="st1" d="M582.6,895.3c0,0-7.1-4.9-17.9-14.7c-15.2-13.6-29.9-27.7-43-43c-8.2-9.2-17.4-19.6-26.1-31.5
	c-8.7-11.4-17.9-23.4-26.6-37c-8.7-13.1-17.4-27.2-25.6-41.3c-4.4-7.1-8.2-14.7-12-22.3s-7.6-15.2-10.9-22.8s-7.1-15.2-9.8-23.4
	c-2.7-8.2-6.5-15.8-9.2-23.4l-4.4-12l-3.8-12l-3.8-11.4l-3.3-11.4l-3.3-11.4l-2.7-11.4c-1.6-7.6-3.3-14.7-4.4-21.8
	c-2.7-14.1-4.4-27.7-6-40.2s-2.7-23.9-2.7-34.3s-1.1-19-1.1-26.6v-22.8l1.1,22.8c0,7.1,1.1,16.3,2.2,26.1c0.5,4.9,1.1,10.3,1.6,16.3
	l2.2,17.4c2.2,12.5,4.4,26.1,7.6,39.7c1.1,7.1,3.3,14.1,4.9,21.8l2.7,10.9l3.3,11.4l3.3,11.4l3.8,11.4l3.8,11.4l4.4,11.4
	c2.7,7.6,6,15.2,9.2,22.8c3.3,7.6,6.5,15.8,10.3,22.8c3.3,7.6,7.1,15.2,10.9,22.8s7.6,14.7,11.4,21.8c8.2,14.1,16.3,28.3,25,41.3
	c8.7,13.1,17.4,25.6,25.6,37c8.7,11.4,16.9,22.3,25,32.1c8.2,9.8,15.8,18.5,22.8,25.6c7.1,7.6,13.1,13.6,18.5,19
	C576.1,889.9,582.6,895.3,582.6,895.3z"/>
<path class="st1" d="M668.5,744.1c0,0-1.6-8.7-2.7-23.4c-1.6-20.7-2.2-41.3-2.2-62.5c0-13.1,1.1-27.2,2.2-41.9s2.7-30.5,5.4-46.2
	c1.1-8.2,2.7-16.3,3.8-24.5s3.3-16.3,4.9-25c2.2-8.2,3.8-16.9,6-25c2.2-8.2,4.4-16.9,7.1-25c5.4-16.3,11.4-32.6,17.9-48.4l10.3-22.8
	c3.8-7.6,7.1-14.7,10.9-22.3s7.6-14.1,11.4-20.7l12-19.6l12.5-17.9c4.4-5.4,8.2-10.9,12.5-16.3c4.4-5.4,8.2-9.8,12-14.1
	s7.6-8.7,10.9-12.5c7.6-7.6,13.6-14.1,19-19.6l17.4-15.8l-16.3,16.9c-5.4,5.4-10.9,12.5-17.9,20.1c-3.3,3.8-6.5,8.2-10.3,13.1
	c-3.8,4.4-7.6,9.2-11.4,14.7c-3.8,5.4-7.6,10.3-11.4,16.3L761,339.5l-11.4,19.6l-11.4,20.7c-3.8,7.1-7.1,14.7-10.9,21.8l-9.8,22.8
	c-6,15.8-12,31.5-16.9,47.9c-2.7,8.2-4.9,16.3-7.1,24.5s-4.4,16.3-6.5,24.5c-2.2,8.2-3.8,16.3-5.4,24.5c-1.6,8.2-3.3,16.3-4.4,23.9
	c-2.7,15.8-4.4,31-6,45.7s-2.7,28.3-3.3,41.3c-1.1,25.6-1.1,47.3-0.5,62C667.4,735.4,668.5,744.1,668.5,744.1z"/>
<polygon class="st1" points="856.1,674.5 959.5,583.1 962.2,714.8 942.1,623.9 "/>
<polygon class="st1" points="688.6,715.3 696.8,578.2 792,669.6 713.1,619 "/>
<polygon class="st1" points="576.1,867 489,760.4 621.2,763.7 529.3,779.5 "/>
<polygon class="st1" points="592.4,1034.5 455.3,1020.9 550.5,930.1 496.7,1006.3 "/>
<polygon class="st1" points="781.1,1124.3 670.1,1205.8 679.4,1074.2 690.8,1167.2 "/>
<polygon class="st1" points="945.9,1096 947,1233.6 845.8,1148.7 927.9,1193.9 "/>
<polygon class="st1" points="1041.6,943.7 1133.5,1046.5 1000.8,1049.2 1092.7,1029.1 "/>
<polygon class="st1" points="1000.3,779.5 1138.4,789.3 1044.9,882.8 1096.5,805.6 "/>
<polygon class="st0" points="1153.1,733.8 998.1,725.1 998.1,588 1017.7,710.4 "/>
<polygon class="st0" points="1181.4,1019.8 1075.9,907.3 1171,808.3 1099.8,909.4 "/>
<polygon class="st0" points="1000.8,1231.4 1000.8,1077 1138.4,1072.1 1017.1,1095.4 "/>
<polygon class="st0" points="695.7,1261.3 816.4,1165.1 908.4,1267.3 812.1,1189 "/>
<polygon class="st0" points="483.6,1081.8 638.1,1086.7 632.1,1223.8 618.5,1101.4 "/>
<polygon class="st0" points="923,530.9 809.4,635.4 697.3,527.1 812.1,611.4 "/>
<polygon class="st0" points="621.2,572.3 628.8,726.2 472.7,726.2 614.1,707.1 "/>
<polygon class="st0" points="433.6,787.6 530.9,907.8 405.3,999.7 507.5,901.3 "/>
</svg>
