<?xml version="1.0" encoding="utf-8"?>
<!-- Generator: Adobe Illustrator 22.1.0, SVG Export Plug-In . SVG Version: 6.00 Build 0)  -->
<svg version="1.1" id="Layer_1" xmlns="http://www.w3.org/2000/svg" xmlns:xlink="http://www.w3.org/1999/xlink" x="0px" y="0px"
	 viewBox="0 0 1563.5 1559.4" style="enable-background:new 0 0 1563.5 1559.4;" xml:space="preserve">
<style type="text/css">
	.st0{opacity:0.2;}
	.st1{opacity:0.3;fill:#65BD6E;enable-background:new    ;}
	.st2{opacity:0.5;}
	.st3{opacity:0.3;fill:#212120;enable-background:new    ;}
</style>
<title>flower</title>
<g class="st0">
	<g>
		<path class="st1" d="M822.3,535.3c0,0,6.2-8.1,18.7-21.8c17.4-18.7,35.5-36.1,54.9-52.9c27.4-23.7,56-45.5,86.6-64.8
			c16.8-10.5,34.3-21.2,52.4-31.2c18.1-10,37.3-18.7,56.7-27.4c19.4-8.7,39.3-15.6,59.2-21.8c10-3.1,19.9-6.2,29.9-8.7
			c10-2.5,19.4-5.6,29.3-7.4c10-1.8,19.4-4.4,28.6-6.2c9.4-1.8,18.7-3.8,27.4-4.4c8.7-0.6,17.4-2.5,26.1-3.1l24.3-1.8
			c8.1-0.6,15.6-0.6,22.5-1.3c7.4,0,13.7-0.6,20.5,0c13.1,0.6,23.7,0,33,1.3l28.6,1.8l-28.6-0.6c-9.4,0-20.5,0.6-33,0.6
			c-6.2,0-13.1,0.6-20.5,1.3c-7.4,0.6-15,0.6-22.5,1.8l-24.3,2.5c-8.7,1.3-16.8,2.5-25.5,3.8c-8.7,1.3-18.1,3.1-27.4,5
			c-9.4,1.8-18.7,3.8-28.1,6.2c-9.4,2.5-19.4,5-28.6,7.4c-9.4,2.5-19.4,5.6-29.3,9.4c-19.4,6.2-38.6,14.3-58,22.5
			c-19.4,8.1-38,17.4-56,26.8c-18.1,9.4-35.5,19.9-52.4,29.9c-16.8,10-32.4,20.5-46.7,31.2c-14.3,10.7-28.1,20.5-40.4,30.5
			c-24.3,19.9-43.6,37.3-56.7,50.5C829.7,527.2,822.3,535.3,822.3,535.3z"/>
		<path class="st1" d="M975.6,971.3l1.3,6.9c0.6,4.4,1.8,11.2,3.1,19.9c3.1,23.7,5.6,48,6.2,72.3c1.3,34.3,0,68.5-3.8,102.8
			c-2.5,18.7-5,38-8.7,57.3c-1.8,10-4.4,19.4-6.2,29.3c-1.8,10-5,19.4-8.1,29.3c-3.1,10-6.2,19.4-10,28.6l-5.6,13.7l-5.6,13.7
			c-7.4,18.1-16.2,34.9-26.1,51.7c-5,8.1-10,16.2-15,23.7c-5,7.4-10.5,14.3-15.6,21.8c-10,13.1-19.9,25.5-31.2,37.3l-7.4,8.1
			l-7.4,7.4c-5,5-10,9.4-14.3,13.1c-9.4,7.4-17.4,15-24.3,19.9l-22.5,16.2l21.2-17.4c6.9-5.6,14.3-13.1,23.7-21.2
			c4.4-4.4,8.7-8.7,13.7-13.7l7.4-7.4l6.9-8.1c10.5-11.8,20.5-24.3,29.9-37.3c5-6.9,10-14.3,15-21.8c5-7.4,9.4-15.6,14.3-23.7
			c9.4-16.8,18.1-33.7,25.5-51.1l5.6-13.7l5-13.7c3.8-9.4,6.2-18.7,9.4-28.1c3.1-9.4,5.6-19.4,8.1-28.6c2.5-9.4,5-19.4,6.9-28.6
			c4.4-19.4,6.9-38,9.4-56.7c2.5-18.7,3.8-36.8,5-53.6c1.3-16.8,1.3-33,1.3-48s-0.6-28.6-0.6-40.4c0-11.8-1.3-22.5-1.8-31.2
			C977.4,981.3,975.6,971.3,975.6,971.3z"/>
		<path class="st1" d="M796.1,1051.2c0,0-1.3,1.8-4.4,5.6c-3.1,3.8-7.4,8.7-13.7,14.3c-6.2,6.2-13.7,13.1-23,21.2l-6.9,6.2l-7.4,6.2
			c-5.6,4.4-11.2,8.7-16.8,13.1c-12.5,8.7-25.5,18.1-39.9,26.8c-7.4,4.4-14.3,9.4-22.5,13.7l-24.3,13.1c-8.1,4.4-16.8,8.7-25.5,12.5
			l-26.1,12.5l-27.4,11.2c-9.4,3.8-18.1,7.4-28.1,10.5l-28.1,9.4l-13.7,5c-5,1.3-9.4,2.5-14.3,3.8l-28.1,7.4
			c-9.4,2.5-18.1,5-27.4,6.9c-18.1,3.8-35.5,7.4-52.4,10.5l-47.3,6.9l-21.2,3.1c-6.9,0.6-13.1,1.3-19.4,1.8l-31.2,2.5l-26.8,1.8
			l26.8-3.8l31.2-3.8c6.2-0.6,12.5-1.3,18.7-2.5l21.2-3.8l46.7-8.1c16.8-3.8,33.7-8.1,51.7-11.8c9.4-1.8,18.1-4.4,27.4-6.9l27.4-7.4
			c5-1.3,9.4-2.5,13.7-3.8l13.7-5l28.1-9.4c9.4-3.1,18.7-6.9,27.4-10.5l27.4-10.5l26.1-11.8c8.7-3.8,17.4-7.4,25.5-11.8l24.3-12.5
			c8.1-3.8,15-8.7,22.5-13.1c15-8.1,28.1-17.4,40.4-25c6.2-4.4,11.8-8.7,17.4-12.5l8.1-5.6l7.4-5.6c9.4-7.4,17.4-14.3,24.3-19.9
			c6.9-5.6,11.2-10,15-13.7C794.2,1053.6,796.1,1051.2,796.1,1051.2z"/>
		<path class="st1" d="M998.6,631.9c0,0,9.4-1.3,26.1-1.8c16.7-0.6,40.4-0.6,69.2,0.6c14.3,0.6,29.9,1.8,46.1,3.8
			c16.2,1.8,33.7,4.4,51.1,7.4c17.4,3.1,35.5,6.9,53.6,11.2s36.8,9.4,54.9,15c9.4,3.1,18.1,6.2,26.8,9.4l26.1,10
			c8.7,3.8,17.4,6.9,25.5,11.2c8.1,4.4,16.8,7.4,25,11.2c8.1,4.4,16.2,7.4,23.7,11.8l21.8,12.5l20.5,12.5
			c6.2,4.4,12.5,8.7,18.7,12.5c11.8,8.1,21.8,16.2,31.2,23c8.7,6.9,16.8,13.7,23,19.4l19.4,17.4l-20.5-16.2
			c-6.2-5-15-11.2-23.7-18.1c-5-3.8-10-6.9-15-10.5c-5-3.7-10.5-7.4-16.8-11.2c-6.2-3.8-12.5-7.4-18.7-11.8l-20.5-11.8l-21.8-11.8
			l-23.7-11.2c-8.1-3.8-16.2-7.4-24.3-11.2c-8.1-3.8-16.8-6.9-25.5-10.5l-26.1-10c-8.7-3.1-18.1-6.2-26.8-8.7
			c-18.1-5.6-36.1-11.2-54.2-15.6c-18.1-4.4-36.1-8.1-53.6-11.8c-17.4-3.1-34.3-6.2-50.5-8.1c-16.3-1.9-31.2-3.8-45.5-5.6
			c-28.1-2.5-51.7-3.8-68.5-4.4C1008.6,629.3,998.6,631.9,998.6,631.9z"/>
		<path class="st1" d="M1062.2,810l5,3.8c3.1,2.5,8.1,6.9,14.3,12.5c11.8,11.2,29.3,26.8,48.6,47.3c19.4,20.5,41.1,44.9,62.9,72.3
			c22.5,28.6,43.6,58.5,62.9,89.7c19.4,31.2,36.8,63.6,52.4,96.6c13.1,29.3,25,59.2,34.3,89.7c6.9,21.8,12.5,43.6,16.8,66
			c1.8,8.1,2.5,14.3,3.1,18.7l1.3,6.9c0,0-1.8-9.4-5.6-25c-3.8-15.6-10.5-38-19.4-64.8c-10.5-29.9-22.5-59.2-36.1-87.9
			c-15.6-33-33-64.8-52.4-95.3c-19.4-31.2-39.9-61.1-61.6-89.7c-21.2-27.4-41.7-52.9-60.5-73.5c-18.7-20.5-34.3-38-46.1-49.3
			l-13.7-13.1C1064,811.3,1061.5,809.3,1062.2,810z"/>
		<path class="st1" d="M621.7,955.2c0,0-10,2.5-28.6,5c-25.5,3.1-51.1,5-76.6,5.6c-15.6,0-33,0-51.1-0.6c-18.1-0.6-37.3-2.5-56.7-5
			c-19.4-2.5-39.9-5.6-60.5-10c-20.5-4.4-41.1-9.4-61.1-15c-10-3.1-19.9-6.9-29.9-10c-10-3.8-19.9-7.4-29.3-11.2
			c-19.4-8.1-38-16.2-55.4-25.5c-16.8-8.7-33.7-18.7-49.3-28.6l-21.8-15l-19.9-15c-6.2-4.4-11.8-10-17.4-14.3s-10.5-9.4-15.6-13.7
			c-9.4-8.7-18.1-16.2-24.3-23L4.2,757.7l21.2,19.9c6.9,6.2,15.6,13.1,25,21.8c5,4.4,10.5,8.1,16.2,12.5c5.6,4.4,11.2,9.4,18.1,13.7
			l19.9,14.3l22.5,14.3c15.6,9.4,31.7,18.7,49.8,27.4c17.4,8.7,36.1,17.4,55.4,25c9.4,3.8,19.4,7.4,29.3,11.2
			c10,3.8,19.9,6.2,29.9,9.4c19.9,6.2,40.4,11.8,60.5,15.6c20,3.8,40.4,7.4,59.8,10.5c19.4,3.1,38.6,5,56.7,5.6
			c18.1,0.6,34.9,1.8,51.1,1.8c31.7,0,58-0.6,76-2.5C613.6,956.4,621.7,955.2,621.7,955.2z"/>
		<path class="st1" d="M543.8,783.2c0,0-8.1-5.6-20.5-16.8c-17.4-15.6-34.3-31.7-49.3-49.3c-9.4-10.5-19.9-22.5-29.9-36.1
			c-10-13.1-20.5-26.8-30.5-42.4c-10-15-19.9-31.2-29.3-47.3c-5-8.1-9.4-16.8-13.7-25.5c-4.4-8.7-8.7-17.4-12.5-26.1
			c-3.8-8.7-8.1-17.4-11.2-26.8c-3.1-9.4-7.4-18.1-10.5-26.8l-5-13.7l-4.4-13.7l-4.4-13.1l-3.8-13.1l-3.8-13.1l-3.1-13.1
			c-1.8-8.7-3.8-16.8-5-25c-3.1-16.2-5-31.7-6.9-46.1c-1.8-14.3-3.1-27.4-3.1-39.3c0-11.9-1.3-21.8-1.3-30.5v-26.1l1.3,26.1
			c0,8.1,1.3,18.7,2.5,29.9c0.6,5.6,1.3,11.8,1.8,18.7l2.5,19.9c2.5,14.3,5,29.9,8.7,45.5c1.3,8.1,3.8,16.2,5.6,25l3.1,12.5L325,430
			l3.8,13.1l4.4,13.1l4.4,13.1l5,13.1c3.1,8.7,6.9,17.4,10.5,26.1c3.8,8.7,7.4,18.1,11.8,26.1c3.8,8.7,8.1,17.4,12.5,26.1
			c4.4,8.7,8.7,16.8,13.1,25c9.4,16.2,18.7,32.4,28.6,47.3c10,15,19.9,29.3,29.3,42.4c10,13.1,19.4,25.5,28.6,36.8
			c9.4,11.2,18.1,21.2,26.1,29.3c8.1,8.7,15,15.6,21.2,21.8C536.4,777,543.8,783.2,543.8,783.2z"/>
		<path class="st1" d="M642.2,610c0,0-1.8-10-3.1-26.8c-1.8-23.7-2.5-47.3-2.5-71.6c0-15,1.3-31.2,2.5-48
			c1.3-16.8,3.1-34.9,6.2-52.9c1.3-9.4,3.1-18.7,4.4-28.1s3.8-18.7,5.6-28.6c2.5-9.4,4.4-19.4,6.9-28.6c2.5-9.4,5-19.4,8.1-28.6
			c6.2-18.7,13.1-37.3,20.5-55.4l11.8-26.1c4.4-8.7,8.1-16.8,12.5-25.5s8.7-16.2,13.1-23.7l13.7-22.5l14.3-20.5
			c5-6.2,9.4-12.5,14.3-18.7c5-6.2,9.4-11.2,13.7-16.2s8.7-10,12.5-14.3c8.7-8.7,15.6-16.2,21.8-22.5l19.9-18.1l-18.7,19.4
			c-6.2,6.2-12.5,14.3-20.5,23c-3.8,4.4-7.4,9.4-11.8,15c-4.4,5-8.7,10.5-13.1,16.8c-4.4,6.2-8.7,11.8-13.1,18.7l-13.2,20.4
			l-13.1,22.5l-13.1,23.7c-4.4,8.1-8.1,16.8-12.5,25l-11.2,26.1c-6.9,18.1-13.7,36.1-19.4,54.9c-3.1,9.4-5.6,18.7-8.1,28.1
			s-5,18.7-7.4,28.1c-2.5,9.4-4.4,18.7-6.2,28.1c-1.8,9.4-3.8,18.7-5,27.4c-3.1,18.1-5,35.5-6.9,52.4c-1.8,16.8-3.1,32.4-3.8,47.3
			c-1.3,29.3-1.3,54.2-0.6,71C641,600,642.2,610,642.2,610z"/>
		<polygon class="st1" points="857.1,530.3 975.6,425.5 978.7,576.4 955.7,472.3 		"/>
		<polygon class="st1" points="665.2,577 674.6,419.9 783.7,524.6 693.3,466.7 		"/>
		<polygon class="st1" points="536.4,750.8 436.6,628.7 588,632.4 482.7,650.5 		"/>
		<polygon class="st1" points="555,942.7 398,927.1 507,823.1 445.4,910.4 		"/>
		<polygon class="st1" points="771.2,1045.5 644,1138.9 654.7,988.2 667.8,1094.7 		"/>
		<polygon class="st1" points="960,1013.1 961.3,1170.8 845.3,1073.5 939.4,1125.3 		"/>
		<polygon class="st1" points="1069.6,838.7 1174.9,956.4 1022.9,959.5 1128.2,936.5 		"/>
		<polygon class="st1" points="1022.3,650.5 1180.5,661.8 1073.4,768.9 1132.5,680.4 		"/>
	</g>
	<g class="st2">
		<polygon class="st3" points="808.6,772 751.8,620.6 808.6,541.5 861.5,620.6 		"/>
		<polygon class="st3" points="823.6,774.5 903.3,634.3 986.8,627.4 979.2,707.8 		"/>
		<polygon class="st3" points="836,790.6 997.4,749.5 1055.3,795 994.8,840.5 		"/>
		<polygon class="st3" points="786.8,772 712.7,637.4 636.6,632.4 642.9,714.7 		"/>
		<polygon class="st3" points="778.7,790.6 626.1,748.4 551.3,795.7 626.1,837.4 		"/>
		<polygon class="st3" points="786.8,813.1 644,869.2 637.9,963.3 723.9,949 		"/>
		<polygon class="st3" points="808.6,813.1 756.9,963.3 811.1,1046.8 864,963.3 		"/>
		<polygon class="st3" points="829.7,808.7 896.4,945.9 986.8,953.3 981.2,869.2 		"/>
		<polygon class="st3" points="1197.4,598.2 1019.8,588.2 1019.8,431.2 1042.3,571.4 		"/>
		<polygon class="st3" points="1229.8,925.8 1108.9,797 1217.9,683.5 1136.3,799.4 		"/>
		<polygon class="st3" points="1022.9,1168.2 1022.9,991.4 1180.5,985.7 1041.6,1012.4 		"/>
		<polygon class="st3" points="673.4,1202.5 811.6,1092.3 917,1209.4 806.7,1119.7 		"/>
		<polygon class="st3" points="430.4,996.9 607.4,1002.5 600.5,1159.5 584.9,1019.3 		"/>
		<polygon class="st3" points="933.8,365.7 803.6,485.5 675.2,361.4 806.7,458 		"/>
		<polygon class="st3" points="588,413.2 596.7,589.5 417.9,589.5 579.9,567.6 		"/>
		<polygon class="st3" points="373.1,659.8 484.6,797.5 340.7,902.8 457.8,790.1 		"/>
	</g>
</g>
</svg>
