<?xml version="1.0" encoding="utf-8"?>
<!-- Generator: Adobe Illustrator 20.0.0, SVG Export Plug-In . SVG Version: 6.00 Build 0)  -->
<svg version="1.1" id="Layer_1" xmlns="http://www.w3.org/2000/svg" xmlns:xlink="http://www.w3.org/1999/xlink" x="0px" y="0px"
	 viewBox="0 0 761.2 761.2" style="enable-background:new 0 0 761.2 761.2;" xml:space="preserve">
<style type="text/css">
	.st0{fill:#FFFFFF;}
</style>
<title>Artboard 1</title>
<path class="st0" d="M190.9,237.1c-3.4,0-6.7,0.6-9.8,1.8l62,63.8l62.7,64.9l1.1,1.4l1.8,1.8l1.8,1.8l3.7,3.9l53.8,55.1
	c0.9,0.5,3.5,3,5.5,4c2.6,1.4,5.4,2.3,8.4,2.6c3.2,0,6.3-0.7,9.2-2.2c2.1-1,3.1-2.5,5.5-4.4l62.2-64.3l62.9-64.7l60.6-62.4
	c-3.9-2.1-8.3-3.2-12.8-3.2L190.9,237.1L190.9,237.1z M171.9,244.8c-6.6,6.3-10.8,15.7-10.8,26.3v209.5c-0.1,8.1,2.5,15.9,7.4,22.4
	l8.7-8.2l64.8-62.9l57.4-55.6l-1.2-1.4l-62.9-64.8l-62.9-64.9L171.9,244.8z M590.5,246.9l-61.2,63.3L466.5,375l-1.1,1.1l59.7,57.9
	l64.7,62.9l3.9,3.7c3.6-6,5.5-12.9,5.5-19.9V271.1C599.3,262.3,596.2,253.7,590.5,246.9L590.5,246.9z M306.6,383.9l-57.2,55.6
	l-64.9,62.9l-8.2,8c4.4,2.9,9.5,4.5,14.7,4.6h378.5c6.3-0.1,12.3-2.4,17.2-6.4l-4.1-4.1l-64.9-62.9l-59.7-57.6l-53.8,55.4
	c-2.9,1.9-4.9,4.1-7.7,5.4c-4.6,2.1-9.6,3.9-14.6,3.8s-10-2.1-14.5-4.3c-2.3-1.1-3.5-2.2-6.2-4.5L306.6,383.9L306.6,383.9z"/>
</svg>
