<?xml version="1.0" encoding="utf-8"?>
<!-- Generator: Adobe Illustrator 20.0.0, SVG Export Plug-In . SVG Version: 6.00 Build 0)  -->
<svg version="1.1" id="Layer_1" xmlns="http://www.w3.org/2000/svg" xmlns:xlink="http://www.w3.org/1999/xlink" x="0px" y="0px"
	 viewBox="0 0 1061 411.5" style="enable-background:new 0 0 1061 411.5;" xml:space="preserve">
<style type="text/css">
	.st0{fill:#252525;}
	.st1{opacity:8.000000e-02;}
	.st2{fill:#74C380;}
	.st3{fill:#FFFFFF;}
	.st4{fill:none;stroke:#FFFFFF;stroke-width:0.2;stroke-miterlimit:10;}
</style>
<title>Home MU</title>
<rect x="0.1" y="-0.1" class="st0" width="1061.2" height="411.4"/>
<g class="st1">
	<path class="st2" d="M651.3,238c0.2-3.4,0.6-6.7,0.8-10.1l1.1-10c0.3-3.3,0.8-6.6,1.3-10l1.3-9.9l1.5-9.9c0.5-3.3,1.1-6.6,1.6-9.9
		c0.5-3.3,1.1-6.6,1.7-9.9c0.6-3.3,1.1-6.6,1.8-9.8l1.9-9.8l2-9.8c0.7-3.3,1.3-6.5,2-9.8l2.1-9.8c0.7-3.2,1.5-6.5,2.2-9.7l2.2-9.7
		l4.7-19.4l11-45l11,45l2.4,9.7c0.8,3.2,1.6,6.4,2.3,9.7c1.5,6.5,3,12.9,4.4,19.4l2.1,9.8c0.7,3.2,1.4,6.5,2,9.8l2,9.8l1.9,9.8
		c0.6,3.3,1.2,6.6,1.8,9.8s1.2,6.6,1.7,9.9s1.1,6.6,1.6,9.9s1,6.6,1.5,9.9l1.3,9.9c0.4,3.3,0.9,6.6,1.3,10l1.1,10
		c0.3,3.4,0.7,6.7,0.9,10.1l-1.2,0.3l-10-38.6l-9.7-38.7l-19.5-77.3h2.4L672.2,161l-9.8,38.6l-10,38.6L651.3,238z"/>
	<path class="st3" d="M664,267.7c0.1-2.2,0.4-4.4,0.6-6.6l0.7-6.5c0.2-2.2,0.5-4.3,0.8-6.5l0.9-6.5l2-12.9c0.3-2.2,0.7-4.3,1.1-6.4
		l1.2-6.4l1.2-6.4l1.3-6.4c0.8-4.3,1.8-8.5,2.7-12.8c0.5-2.1,1-4.2,1.4-6.4l1.5-6.4l3.1-12.6l7.2-29.5l7.1,29.5l3.1,12.7
		c1,4.2,2,8.4,2.9,12.7l1.4,6.4c0.5,2.1,0.9,4.2,1.3,6.4s0.9,4.2,1.3,6.4l1.2,6.4l1.2,6.4c0.4,2.1,0.8,4.3,1.1,6.4l1,6.4
		c0.3,2.1,0.7,4.3,1,6.5l0.9,6.5c0.3,2.2,0.6,4.3,0.8,6.5l0.7,6.5c0.2,2.2,0.4,4.4,0.6,6.6l-0.8,0.2l-6.5-25.3l-6.4-25.2l-12.8-50.5
		h1.6l-12.8,50.5l-6.4,25.2l-6.5,25.2L664,267.7z"/>
</g>
<polyline class="st4" points="-0.3,394 433.1,394 476.6,350.5 "/>
<polyline class="st4" points="1059,109.1 168.4,110.8 125,154.5 "/>
</svg>
