<?xml version="1.0" encoding="utf-8"?>
<!-- Generator: Adobe Illustrator 20.0.0, SVG Export Plug-In . SVG Version: 6.00 Build 0)  -->
<svg version="1.1" id="Layer_1" xmlns="http://www.w3.org/2000/svg" xmlns:xlink="http://www.w3.org/1999/xlink" x="0px" y="0px"
	 viewBox="0 0 178.5 178.4" style="enable-background:new 0 0 178.5 178.4;" xml:space="preserve">
<style type="text/css">
	.st0{clip-path:url(#SVGID_2_);}
	.st1{fill:#FFFFFF;}
</style>
<title>Artboard 1</title>
<g>
	<defs>
		<rect id="SVGID_1_" x="48.6" y="48.4" width="81.7" height="81.7"/>
	</defs>
	<clipPath id="SVGID_2_">
		<use xlink:href="#SVGID_1_"  style="overflow:visible;"/>
	</clipPath>
	<g class="st0">
		<path class="st1" d="M124,80.3h-13c0.5,2.9,0.8,5.9,0.8,8.9c0,13.9-8.6,22.5-22.5,22.5s-22.4-8.6-22.4-22.5c0-3,0.3-6,0.8-8.9h-13
			v37.1c-0.1,3.5,2.7,6.3,6.2,6.4c0.1,0,0.1,0,0.2,0h56.5c3.5,0.1,6.3-2.6,6.4-6.1c0-0.1,0-0.2,0-0.3L124,80.3L124,80.3z M120.8,61
			c0-1.7-1.4-3.1-3.1-3.1h-9.4c-1.7,0-3.1,1.4-3.1,3.1v9.4c0,1.7,1.4,3.1,3.1,3.1h9.4c1.7,0,3.1-1.4,3.1-3.1l0,0L120.8,61z
			 M89.4,73.5c-8.7,0-15.7,7-15.7,15.7c0,8.7,7,15.7,15.7,15.7c8.7,0,15.7-7,15.7-15.7c0,0,0,0,0,0C105.1,80.5,98.1,73.5,89.4,73.5
			 M120.8,130H58c-5.2,0-9.4-4.2-9.4-9.4c0,0,0,0,0,0V57.8c0-5.2,4.2-9.4,9.4-9.4h0h62.8c5.2,0,9.4,4.2,9.4,9.4v0v62.8
			C130.2,125.8,126,130,120.8,130C120.8,130,120.8,130,120.8,130"/>
	</g>
</g>
</svg>
