<?xml version="1.0" encoding="utf-8"?>
<!-- Generator: Adobe Illustrator 22.1.0, SVG Export Plug-In . SVG Version: 6.00 Build 0)  -->
<svg version="1.1" id="Layer_1" xmlns="http://www.w3.org/2000/svg" xmlns:xlink="http://www.w3.org/1999/xlink" x="0px" y="0px"
	 viewBox="0 0 82.3 82.8" style="enable-background:new 0 0 82.3 82.8;" xml:space="preserve">
<style type="text/css">
	.st0{clip-path:url(#SVGID_2_);}
	.st1{fill:#863C4D;}
</style>
<title>Artboard 1</title>
<g>
	<g>
		<g>
			<g>
				<defs>
					<rect id="SVGID_1_" x="0.4" y="0.8" width="81.7" height="81.7"/>
				</defs>
				<clipPath id="SVGID_2_">
					<use xlink:href="#SVGID_1_"  style="overflow:visible;"/>
				</clipPath>
				<g class="st0">
					<path class="st1" d="M75.8,32.7h-13c0.5,2.9,0.8,5.9,0.8,8.9c0,13.9-8.6,22.5-22.5,22.5s-22.4-8.6-22.4-22.5c0-3,0.3-6,0.8-8.9
						h-13v37.1c-0.1,3.5,2.7,6.3,6.2,6.4c0.1,0,0.1,0,0.2,0h56.5c3.5,0.1,6.3-2.6,6.4-6.1c0-0.1,0-0.2,0-0.3L75.8,32.7L75.8,32.7z
						 M72.6,13.4c0-1.7-1.4-3.1-3.1-3.1h-9.4c-1.7,0-3.1,1.4-3.1,3.1v9.4c0,1.7,1.4,3.1,3.1,3.1h9.4c1.7,0,3.1-1.4,3.1-3.1l0,0V13.4
						z M41.2,25.9c-8.7,0-15.7,7-15.7,15.7s7,15.7,15.7,15.7s15.7-7,15.7-15.7l0,0C56.9,32.9,49.9,25.9,41.2,25.9 M72.6,82.4H9.8
						c-5.2,0-9.4-4.2-9.4-9.4l0,0V10.2c0-5.2,4.2-9.4,9.4-9.4l0,0h62.8c5.2,0,9.4,4.2,9.4,9.4l0,0V73C82,78.2,77.8,82.4,72.6,82.4
						L72.6,82.4"/>
				</g>
			</g>
		</g>
	</g>
</g>
</svg>
