<?xml version="1.0" encoding="utf-8"?>
<!-- Generator: Adobe Illustrator 22.1.0, SVG Export Plug-In . SVG Version: 6.00 Build 0)  -->
<svg version="1.1" id="Capa_1" xmlns="http://www.w3.org/2000/svg" xmlns:xlink="http://www.w3.org/1999/xlink" x="0px" y="0px"
	 viewBox="0 0 14.6 13.9" style="enable-background:new 0 0 14.6 13.9;" xml:space="preserve">
<style type="text/css">
	.st0{fill:#863C4D;}
</style>
<g>
	<path id="LinkedIn" class="st0" d="M14.4,8.4v5.3h-3.1V8.8c0-1.2-0.4-2.1-1.5-2.1C9,6.7,8.5,7.3,8.2,7.8C8.1,8,8.1,8.3,8.1,8.5v5.2
		H5c0,0,0-8.3,0-9.2h3.1v1.3l0,0l0,0l0,0c0.4-0.6,1.1-1.5,2.8-1.5C12.9,4.3,14.4,5.6,14.4,8.4z M1.8,0.1c-1,0-1.7,0.7-1.7,1.6
		s0.7,1.6,1.7,1.6l0,0c1.1,0,1.7-0.7,1.7-1.6C3.5,0.7,2.9,0.1,1.8,0.1z M0.3,13.7h3.1V4.5H0.3V13.7z"/>
</g>
</svg>
