<?xml version="1.0" encoding="utf-8"?>
<!-- Generator: Adobe Illustrator 20.0.0, SVG Export Plug-In . SVG Version: 6.00 Build 0)  -->
<svg version="1.1" id="Capa_1" xmlns="http://www.w3.org/2000/svg" xmlns:xlink="http://www.w3.org/1999/xlink" x="0px" y="0px"
	 viewBox="0 0 28.8 27.6" style="enable-background:new 0 0 28.8 27.6;" xml:space="preserve">
<style type="text/css">
	.st0{fill:#FFFFFF;}
</style>
<g>
	<path id="LinkedIn" class="st0" d="M23.1,14.7V20H20v-4.9c0-1.2-0.4-2.1-1.5-2.1c-0.8,0-1.3,0.6-1.6,1.1c-0.1,0.2-0.1,0.5-0.1,0.7
		V20h-3.1c0,0,0-8.3,0-9.2h3.1v1.3c0,0,0,0,0,0h0v0c0.4-0.6,1.1-1.5,2.8-1.5C21.6,10.6,23.1,11.9,23.1,14.7z M10.5,6.4
		c-1,0-1.7,0.7-1.7,1.6c0,0.9,0.7,1.6,1.7,1.6h0c1.1,0,1.7-0.7,1.7-1.6C12.2,7,11.6,6.4,10.5,6.4z M9,20h3.1v-9.2H9V20z"/>
</g>
</svg>
