<?xml version="1.0" encoding="utf-8"?>
<!-- Generator: Adobe Illustrator 20.0.0, SVG Export Plug-In . SVG Version: 6.00 Build 0)  -->
<svg version="1.1" id="Layer_1" xmlns="http://www.w3.org/2000/svg" xmlns:xlink="http://www.w3.org/1999/xlink" x="0px" y="0px"
	 viewBox="0 0 300 300" style="enable-background:new 0 0 300 300;" xml:space="preserve">
<style type="text/css">
	.st0{fill:#72C37F;}
	.st1{fill:#212121;}
</style>
<title>Artboard 6</title>
<path class="st0" d="M113.9,244c0.2-3.9,0.7-7.7,1-11.5l1.3-11.5c0.4-3.8,1-7.6,1.5-11.4l1.5-11.4l1.7-11.3
	c0.6-3.8,1.2-7.5,1.8-11.3s1.3-7.5,2-11.3s1.3-7.5,2.1-11.3l2.1-11.2l2.3-11.2c0.8-3.7,1.5-7.5,2.3-11.2l2.4-11.2
	c0.8-3.7,1.7-7.4,2.5-11.2l2.6-11l5.4-22.2L159,12.2l12.6,51.6l2.7,11.1c0.9,3.7,1.8,7.4,2.7,11.1c1.7,7.4,3.5,14.8,5.1,22.3
	l2.4,11.2c0.8,3.7,1.6,7.5,2.3,11.2c0.8,3.7,1.5,7.5,2.3,11.2l2.1,11.2c0.7,3.7,1.4,7.5,2.1,11.3s1.4,7.5,2,11.3s1.3,7.5,1.9,11.3
	s1.2,7.6,1.7,11.3l1.6,11.4c0.5,3.8,1.1,7.6,1.5,11.4l1.2,11.4c0.3,3.8,0.8,7.7,1,11.5l-1.4,0.4l-11.4-44.2L180,155.9l-22.4-88.6
	h2.8L138,155.9l-11.2,44.3l-11.4,44.2L113.9,244z"/>
<path class="st1" d="M128.5,278.1c0.1-2.5,0.4-5,0.6-7.5l0.8-7.5c0.2-2.5,0.6-5,1-7.4l1-7.4l1.2-7.4l1.2-7.4
	c0.4-2.5,0.8-4.9,1.3-7.4s0.9-4.9,1.3-7.4l1.4-7.3l1.5-7.3c1-4.9,2.1-9.7,3.1-14.6c0.5-2.4,1.1-4.9,1.6-7.3l1.7-7.3l3.5-14.5
	l8.2-33.8l8.2,33.8l3.5,14.5c1.1,4.9,2.3,9.7,3.3,14.6l1.6,7.3c0.5,2.4,1,4.9,1.5,7.3l1.5,7.3l1.4,7.3c0.5,2.4,0.9,4.9,1.3,7.4
	s0.9,4.9,1.3,7.4l1.2,7.4c0.4,2.5,0.8,4.9,1.2,7.4l1,7.4c0.3,2.5,0.7,5,1,7.4l0.8,7.5c0.2,2.5,0.5,5,0.6,7.5l-0.9,0.2l-7.5-28.9
	l-7.3-28.9L157,162.6h1.8l-14.6,57.9l-7.3,28.9l-7.5,28.9L128.5,278.1z"/>
</svg>
